<svg width="561" height="353" viewBox="0 0 561 353" fill="none" xmlns="http://www.w3.org/2000/svg">
<g opacity="0.6">
<path opacity="0.6" d="M250.942 287.613C236.156 287.662 221.369 288.079 206.61 289.997C201.047 290.72 195.598 292.313 190.019 292.95C178.876 294.231 167.935 296.627 156.748 297.729C147.743 298.618 138.706 299.139 129.728 300.266C121.037 301.357 112.252 301.044 103.641 299.335C97.4556 298.042 91.2432 297.313 85.1673 295.242C78.3659 292.919 70.9863 291.259 63.8959 291.32C53.7893 291.4 43.9499 291.412 34.2796 295.511C30.8871 296.951 26.731 299.317 24.1566 302.337C18.2552 309.249 17.4534 326.498 23.3439 333.668C33.2706 345.733 54.4329 350.469 68.3574 350.696C83.6292 350.935 98.4101 349.618 113.671 348.858C127.852 348.135 142.005 347.105 156.214 347.142C185.23 347.216 214.252 347.142 243.219 344.881C270.43 342.749 297.712 343.484 324.983 343.484C352.952 343.484 380.73 343.735 408.498 348.08C420.595 349.973 432.916 350.635 445.073 351.958C455.982 353.147 466.427 351.958 477.253 350.843C486.442 349.943 495.402 347.136 503.679 342.565C510.224 338.888 521.907 327.552 523.914 318.821C529.543 294.353 444.561 294.923 431.514 294.997C416.919 295.058 402.209 295.609 387.619 294.997C381.488 294.727 375.44 293.324 369.456 291.786C363.473 290.248 357.457 290.646 351.43 290.003C326.21 287.325 300.93 287.717 275.617 287.717C267.414 287.668 259.173 287.582 250.942 287.613Z" fill="#F7F7F7"/>
</g>
<path d="M120.44 26.4364L121.269 16.473L117.494 15.8848L115.58 22.5699L113.906 21.3628L114.124 29.9904L117.974 31.1914L120.44 26.4364Z" fill="#F4D0C1"/>
<path d="M64.3376 76.548L103.881 59.8258L113.764 28.7649L118.743 30.8054L118.012 69.3481L81.0057 99.594L64.3376 76.548Z" fill="#BCBEC0"/>
<path d="M275.65 111.647L275.219 116.629L267.059 118.688L263.007 114.208L263.667 108.436L268.036 108.791L268.319 107.541L269.857 106.72L275.65 111.647Z" fill="#E4D2B8"/>
<path d="M467.278 189.161L469.023 234.579L463.912 311.805L456.266 312.411L446.977 242.275L434.127 182.923L467.278 189.161Z" fill="#3B455A"/>
<path d="M456.538 316.033L465.101 320.016L468.941 315.04L464.512 310.726L456.249 311.388L456.538 316.033Z" fill="#2A313F"/>
<path d="M413.155 173.088L411.481 207.421L416.461 309.494L424.113 309.923L435.589 242.979L445.706 169.559L413.155 173.088Z" fill="#3B455A"/>
<path d="M423.911 313.551L415.424 317.736L411.492 312.852L415.839 308.434L424.113 308.9L423.911 313.551Z" fill="#2A313F"/>
<path d="M457.656 71.9581L433.767 69.0781C433.767 69.0781 420.481 70.6774 411.465 106.132C406.447 125.857 404.92 156.936 404.549 180.631C405.094 184.014 408.394 198.818 422.253 196.306C446.055 192.016 458.72 187.678 469.088 189.835C477.913 191.992 477.166 178.339 476.179 167.916L472.655 135.667L457.656 71.9581Z" fill="#DA0100"/>
<path d="M453.053 38.5506C447.053 37.0555 440.836 35.7197 434.809 37.0616C433.489 37.3557 432.082 37.8705 431.356 39.1511C431.104 39.6634 430.92 40.2147 430.811 40.7872C429.289 47.1415 427.364 56.5535 431.083 62.4053C431.812 63.5018 432.726 64.4263 433.772 65.126C435.138 66.0791 436.646 66.7456 438.223 67.0929C437.9 68.6739 437.449 70.2184 436.876 71.707C438.256 74.0416 444.686 74.3173 445.875 72.0808L446.072 66.2718C446.859 65.9185 447.613 65.4793 448.324 64.9605C450.995 62.886 452.969 59.8655 453.931 56.3819C455.076 52.6196 456.691 49.0288 457.749 45.2174C458.131 43.8203 458.431 42.2272 457.749 40.9649C457.067 39.7026 455.567 39.1634 454.198 38.8264L453.053 38.5506Z" fill="#C1755D"/>
<path d="M433.014 42.1784C435.992 40.0337 440.454 39.1146 443.252 39.3352C451.711 40.0215 454.815 47.0008 455.251 55.7388C457.585 52.4115 461.96 48.2263 462.222 43.9431C462.44 40.4381 462.009 35.6586 460.258 32.6316C458.622 29.8006 454.438 28.2442 451.951 26.602L444.921 21.9634C444.45 21.6065 443.925 21.349 443.372 21.2036C442.706 21.1297 442.033 21.2132 441.397 21.4487L424.773 26.2772C423.682 26.5897 422.499 27.037 422.106 28.1952C421.93 28.9238 421.945 29.6942 422.15 30.4134C422.777 33.6426 423.988 36.9454 424.282 40.2175C424.62 42.1171 425.635 51.86 428.646 50.7386C429.529 49.121 429.66 47.1295 430.342 45.4015C430.938 44.0606 431.866 42.9414 433.014 42.1784Z" fill="#2E3644"/>
<path d="M352.521 300.027C353.334 299.022 354.288 298.471 355.363 298.661C355.877 298.755 356.364 298.988 356.78 299.34C357.196 299.692 357.53 300.153 357.752 300.683C358.006 301.417 358.144 302.194 358.161 302.981C358.461 307.031 358.434 316.651 353.628 318.036C351.61 318.649 349.941 317.007 349.401 314.972C348.572 311.903 349.794 303.404 352.521 300.027Z" fill="#2A313F"/>
<path d="M350.814 238.911L351.065 263.623C350.77 274.598 352.298 285.634 352.003 296.614C351.938 299.139 351.354 301.798 351.916 304.298C352.478 306.798 354.239 307.178 356.055 305.94C358.493 304.28 358.101 300.426 358.504 297.576C359.595 289.8 360.926 282.067 362.088 274.291C362.66 270.486 361.482 265.149 361.739 261.295L365.295 240.59L350.814 238.911Z" fill="#EFC4B1"/>
<path d="M375.941 198.983L366.369 246.754L364.335 291.872L349.156 291.492L345.032 165.288L374.458 165.888L375.941 198.983Z" fill="#3B455A"/>
<path d="M330.808 299.132C331.659 298.177 332.63 297.686 333.693 297.95C334.205 298.079 334.682 298.345 335.084 298.724C335.485 299.104 335.8 299.586 336 300.131C336.223 300.882 336.33 301.669 336.317 302.46C336.464 306.535 336.071 316.161 331.228 317.228C329.194 317.675 327.59 315.953 327.132 313.876C326.439 310.757 327.961 302.325 330.808 299.132Z" fill="#2A313F"/>
<path d="M338.809 242.379L337.522 267.049C337.419 273.905 336.6 280.707 335.973 287.521C335.384 293.845 336.295 300.432 333.355 306.186C332.433 308.024 330.568 309.194 329.265 307.001C328.261 305.31 328.855 302.497 328.665 300.579C327.879 292.754 326.897 284.96 326.057 277.141C325.648 273.311 327.05 268.041 326.952 264.181L324.274 243.31L338.809 242.379Z" fill="#EFC4B1"/>
<path d="M319.6 196.061L318.367 242.434L324.841 289.335L340.282 289.855L339.6 239.095L347.776 197.004L350.514 169.455L326.014 166.207L319.6 196.061Z" fill="#3B455A"/>
<path d="M338.984 71.2967L365.377 70.5859L380.681 102.566L375.243 132.517L374.272 168.357L336.622 168.933L324.23 166.672L327.525 128.375L325.637 77.2221L338.984 71.2967Z" fill="#D7E8F4"/>
<path d="M334.822 92.3632L325.294 125.189L311.069 130.924L272.154 119.147L277.384 110.054L311.609 111.31L325.687 78.6497L334.822 92.3632Z" fill="#D7E8F4"/>
<path d="M340.637 46.4491C344.613 33.4524 359.884 38.3177 363.037 49.8928C365.088 57.442 359.901 67.2401 352.936 69.4093C352.936 69.7034 352.881 69.9853 352.881 70.2182C352.859 71.4296 352.761 72.6377 352.587 73.8335C352.527 74.2869 346.434 72.9695 345.753 72.8224C345.51 72.8016 345.283 72.6765 345.12 72.4731C344.874 72.0442 345.278 70.7758 345.322 70.2978C345.365 69.8199 345.425 69.1703 345.48 68.6066C342.044 66.7254 339.878 62.7118 339.273 58.6308C338.668 54.5498 339.437 50.3524 340.637 46.4491Z" fill="#EFC4B1"/>
<path d="M350.601 34.7024C351.347 35.6933 351.823 36.9032 351.976 38.1891C352.156 38.9249 352.197 39.6953 352.096 40.4501C351.55 43.4037 348.921 43.2443 346.909 44.2003C344.433 45.4159 342.342 47.4426 340.909 50.0154C338.728 53.9125 339.709 58.9188 340.593 63.2143C340.904 64.7278 341.531 66.9828 340.484 68.3309C339.437 69.6789 336.971 69.489 335.7 68.7843C334.539 68.1409 333.584 66.946 332.308 66.707C331.032 66.468 329.128 67.1176 328.49 65.7266C328.378 65.3084 328.241 64.899 328.081 64.5011C327.334 63.2756 325.479 64.7033 324.427 63.8883C323.778 63.3736 323.783 62.2645 324.001 61.3882C324.219 60.512 324.59 59.6235 324.437 58.7289C324.307 57.9629 323.816 57.3563 323.51 56.6638C323.219 55.9627 323.112 55.183 323.201 54.4158C323.29 53.6486 323.571 52.9257 324.012 52.3316C325.648 50.1686 328.894 50.5791 330.672 48.5447C331.604 47.4847 331.964 45.9589 332.308 44.5128C332.652 43.0666 333.072 41.5409 334.064 40.5604C335.286 39.3349 337.059 39.5555 338.264 38.1094C338.978 37.2699 339.453 36.1731 340.249 35.4377C341.302 34.4696 343.353 33.722 344.662 33.2318C345.675 32.827 346.769 32.7502 347.819 33.0102C348.869 33.2702 349.833 33.8566 350.601 34.7024Z" fill="#2E3644"/>
<path d="M360.261 55.4445C360.332 59.7339 358.439 64.3479 360.195 68.1103C361.952 71.8726 366.375 72.5957 370.138 72.7979C370.755 72.8285 378.696 73.6006 378.729 73.4106C379.323 70.4326 379.934 67.3933 381.325 64.7769C382.716 62.1604 385.028 59.9912 387.679 59.8074C386.915 59.6542 386.528 58.5819 386.588 57.7179C386.764 56.8468 387.011 55.9956 387.324 55.1749C387.605 54.125 387.624 53.0086 387.379 51.9476C387.134 50.8865 386.634 49.9214 385.934 49.1576C383.125 46.2164 378.036 47.4358 375.625 44.0595C374.136 41.9638 374.311 38.9307 373.531 36.3755C372.02 31.4305 367.198 30.3949 363.599 28.1645C359.781 25.8054 356.219 24.4879 351.834 25.3397C346.38 26.3569 342.355 32.5764 344.449 38.4282C347.143 45.9345 357.894 45.285 359.912 52.9077C360.128 53.7322 360.245 54.5853 360.261 55.4445Z" fill="#2E3644"/>
<path d="M357.572 71.1251L349.38 84.1274L345.529 83.7721L339.115 70.5859L357.572 71.1251Z" fill="#E3E3E4"/>
<path d="M145.72 306.308L145.12 311.559L153.863 318.159L159.137 313.588L155.068 307.662L146.32 301.057L145.72 306.308Z" fill="#2A313F"/>
<path d="M145.425 304.549L152.167 237.587L144.051 162.622L145.878 146.678L182.127 145.128L183.436 171.084L177.349 237.691L154.457 307.969L145.425 304.549Z" fill="#3B455A"/>
<path d="M208.721 152.634L208.819 220.209L196.711 307.197L187.995 307.099L183.206 226.656L171.998 146.139L208.721 152.634Z" fill="#3B455A"/>
<path d="M188.012 311.228L197.387 316.627L202.144 311.382L197.48 306.039L188.055 305.934L188.012 311.228Z" fill="#2A313F"/>
<path d="M140.304 175.613C140.386 172.69 140.528 170.245 140.549 169.369C140.735 161.513 141.362 153.676 142.235 145.882C143.02 138.89 144.007 121.537 145.076 114.594C145.954 108.859 149.014 94.5445 151.229 89.2196C156.732 75.9901 155.047 74.7707 179.209 70.8368C189.806 69.1149 192.299 76.5355 200.976 85.0651C201.827 85.9046 201.784 90.917 201.98 92.2467C202.329 94.5813 202.7 96.9098 203.131 99.2321C203.469 101.07 203.84 102.878 204.26 104.686C204.26 104.686 211.536 141.862 216.341 149.76C221.146 157.659 231.067 168.701 214.47 175.441C211.542 176.576 208.541 177.455 205.492 178.07C205.492 178.07 191.901 176.373 184.908 176.434C178.457 176.522 172.024 177.202 165.671 178.468C161.439 179.265 157.125 180.417 153.334 182.641C149.723 184.761 147.116 187.88 143.451 190.074C143.121 190.323 142.73 190.45 142.333 190.435C140.222 190.111 140.124 181.777 140.304 175.613Z" fill="#DA0100"/>
<path d="M179.236 74.5747C178.02 75.2487 175.14 75.4938 172.145 74.1703C171.849 74.043 171.594 73.817 171.414 73.5224C171.235 73.2279 171.14 72.8789 171.142 72.522C171.164 70.4708 171.31 68.4236 171.578 66.3945C169.326 65.506 166.724 64.1702 166.331 61.4924C166.25 60.6506 166.294 59.7994 166.462 58.974C166.993 55.5304 167.524 52.0887 168.055 48.6491C168.168 47.4438 168.493 46.2755 169.009 45.2116C170.018 43.4224 171.982 42.638 173.842 42.2765C178.587 41.3513 183.752 42.5093 187.434 45.9959C188.45 46.8853 189.241 48.0577 189.73 49.3967C190.395 51.4923 189.899 53.7963 189.397 55.9409L188.006 61.8907C187.461 64.1702 186.703 66.7621 184.734 67.6138C183.692 68.0673 182.47 67.9386 181.527 68.6065C179.88 69.8197 180.098 72.5894 179.236 74.5747Z" fill="#F4D0C1"/>
<path d="M206.621 40.242C207.081 39.3872 207.591 38.5683 208.149 37.791C209.37 36.1059 210.876 34.6598 211.847 32.7909C212.817 30.9219 213.167 28.3851 211.994 26.6633C211.236 25.548 210.009 24.9966 208.809 24.5983C204.845 23.2966 200.644 23.2099 196.64 24.347C192.85 25.4316 189.457 27.227 185.639 25.6277C182.05 24.1203 179.465 24.7331 175.718 26.2405C171.66 27.8704 166.217 28.2503 162.546 30.5298C161.03 31.5382 159.757 32.9476 158.837 34.6353C157.217 37.5391 156.354 40.8951 156.347 44.3221C156.339 47.7492 157.187 51.11 158.794 54.023C159.543 55.3037 160.392 56.5074 161.33 57.6199C163.244 59.9484 165.53 62.8284 168.164 63.6924C168.224 61.0453 166.08 52.7056 167.891 50.5364C170.76 47.0988 177.245 48.2998 180.807 49.1454C184.69 50.0707 188.148 53.159 191.999 53.8208C194.77 54.2926 198.304 52.7669 200.66 51.1614C203.567 49.1761 204.92 43.3855 206.621 40.242Z" fill="#2E3644"/>
<path d="M159.137 75.929L144.051 90.7761L127.225 130.507L148.48 158.921L152.139 143.032L159.137 75.929Z" fill="#DA0100"/>
<path d="M61.1306 189.871L27.2273 178.278L37.383 243.2L36.2758 299.849L36.1831 300.229L36.2649 300.235V300.358L42.8481 300.64L42.8536 300.634L43.099 300.652L55.1801 249.475L60.2143 195.46L61.1306 189.871Z" fill="#305399"/>
<path d="M42.641 303.232L35.8342 303.477L34.427 310.027L34.6015 310.076L34.5579 310.083L46.1699 316.841L51.5423 317.166L51.875 310.266L50.3751 309.17L42.641 303.232Z" fill="#2A313F"/>
<path d="M87.2725 189.436L82.9746 301.994L76.4187 302.748L66.7538 242.74L52.2566 183.29L87.2725 189.436Z" fill="#305399"/>
<path d="M83.0893 304.592L92.0778 309.586L91.4942 314.249L75.8025 312.613L76.3806 305.904L83.0893 304.592Z" fill="#2A313F"/>
<path d="M18.8552 210.068C17.6771 191.073 31.258 130.238 31.258 130.238C32.7181 124.566 33.7579 118.768 34.3669 112.903C34.7814 108.767 44.5935 61.6028 43.8627 61.5661C51.444 61.946 65.9849 59.4766 71.7445 65.3345C71.9081 65.5061 72.0663 65.6777 72.2136 65.8615C76.7297 71.3212 79.304 82.5837 81.5239 89.5017C84.4723 98.5843 86.79 107.91 88.4562 117.395C89.907 125.685 90.8615 134.08 91.5923 142.487C92.225 149.711 92.0505 156.924 92.4487 164.038C92.8904 171.918 95.2085 180.398 96.9702 188.021C98.6858 195.723 101.008 203.239 103.908 210.479C96.4902 214.449 88.1453 215.724 79.9094 215.993C71.6736 216.263 63.465 215.663 55.251 216.067C48.3078 216.404 41.2937 217.476 34.4487 216.128C28.9945 215.056 23.9385 212.507 18.8333 210.056L18.8552 210.068Z" fill="#BCBEC0"/>
<path d="M69.2737 40.8789C72.7753 42.6866 76.5005 47.5151 76.3914 52.123C76.3423 54.3412 75.3006 56.0937 75.3006 58.4712C75.3442 63.1588 69.1428 68.2754 73.1189 72.6627C75.1697 74.9177 78.2895 75.2792 81.1529 75.506C81.4975 75.5683 81.8505 75.5304 82.1783 75.3957C82.4276 75.2359 82.6297 74.9975 82.7597 74.7099C82.8896 74.4224 82.9415 74.0984 82.9092 73.778C82.8378 73.1439 82.6853 72.5248 82.4565 71.9397C80.4821 65.5854 83.0346 58.0239 83.1928 51.4797C83.351 44.9354 81.8292 37.9315 76.9532 33.8567C73.7898 35.0516 71.4499 36.6447 69.9664 39.9843L69.2737 40.8789Z" fill="#2E3644"/>
<path d="M67.8283 68.784C71.7444 68.0978 75.0115 64.7337 76.7405 60.7202C78.4694 56.7066 78.8676 52.1416 78.7749 47.6807C78.4694 32.852 62.1123 32.3618 55.8127 43.1585C50.3258 52.5582 56.4236 70.7571 67.8283 68.784Z" fill="#F4D0C1"/>
<path d="M516.447 156.347H386.501V250.553H516.447V156.347Z" fill="white"/>
<path d="M499.135 124.453H451.477H403.812L383.07 151.905H451.477H519.878L499.135 124.453Z" fill="white"/>
<path d="M519.878 151.905H383.07V161.801H519.878V151.905Z" fill="#CCCDCE"/>
<path d="M425.793 133.737L422.433 138.179H476.828L473.468 133.737H425.793Z" fill="#9D9D9E"/>
<path d="M386.501 161.801L516.447 175.41V161.801H386.501Z" fill="#EAEAEA"/>
<path d="M395.855 185.564L505.79 181.74L503.346 185.564L507.66 190.178L504.115 197.022L507.66 200.913L505.042 203.512L510.262 213.205L502.73 220.185L506.428 224.474L396.875 227.918L399.187 223.199H395.855L399.34 212.685L393.64 207.629L397.027 202.366L395.642 199.67L398.418 195.013L393.64 188.622L395.855 185.564Z" fill="#F7F7F7"/>
<path d="M418.8 206.208C418.162 198.389 411.606 189.173 403.943 191.403C403.706 191.46 403.486 191.585 403.305 191.765C403.123 191.946 402.986 192.176 402.907 192.433C402.788 192.64 402.708 192.873 402.672 193.116C402.636 193.36 402.646 193.609 402.7 193.848C404.489 202.476 405.985 211.169 407.189 219.927C407.255 220.394 407.468 220.819 407.789 221.125C408.11 221.431 408.518 221.597 408.939 221.594C411.399 222.513 414.639 218.904 415.943 217.035C418.082 213.964 419.104 210.093 418.8 206.208ZM414.328 213.224C413.824 214.257 413.182 215.197 412.425 216.012C411.887 216.593 411.288 217.097 410.641 217.513C410.439 217.581 410.265 217.642 410.096 217.703C409.005 209.982 407.692 202.306 406.158 194.676C411.066 194.498 415.092 201.373 415.55 206.318C415.777 208.706 415.351 211.115 414.328 213.224Z" fill="#3B455A"/>
<path d="M429.943 193.107C428.737 192.666 427.438 192.665 426.232 193.106C425.025 193.546 423.974 194.405 423.229 195.558C420.464 199.51 420.437 205.515 421.429 210.184C422.384 214.694 424.887 220.05 429.463 220.644C436.036 221.508 436.821 213.518 436.876 208.021C436.926 204.898 436.432 201.794 435.419 198.885C434.936 197.533 434.195 196.315 433.249 195.317C432.303 194.319 431.175 193.565 429.943 193.107ZM429.398 216.888C421.762 214.768 422.755 192.598 430.489 197.065C433.025 198.53 433.456 203.462 433.603 206.257C433.805 209.627 434.001 218.162 429.398 216.888Z" fill="#3B455A"/>
<path d="M450.74 193.683L450.691 194.339C450.676 194.545 450.695 194.753 450.746 194.951L450.795 207.44C450.337 206.292 449.859 205.154 449.36 204.026C447.561 199.927 445.832 195.625 442.979 192.31C441.981 191.152 440.252 192.139 440.252 193.665C440.339 201.794 440.574 209.923 440.956 218.053C441.065 220.381 444.299 220.308 444.19 217.967C443.903 211.729 443.697 205.491 443.574 199.253C444.703 201.416 445.652 203.738 446.612 205.932C448.525 210.11 449.969 214.54 450.909 219.119C451.308 221.172 454.084 220.547 454.078 218.555L453.98 193.603C453.964 191.214 450.898 191.397 450.74 193.683Z" fill="#3B455A"/>
<path d="M472.094 215.589C470.228 207.374 468.008 199.282 465.434 191.312C465.322 190.942 465.107 190.622 464.822 190.398C464.537 190.174 464.196 190.058 463.848 190.067C463.5 190.076 463.164 190.209 462.888 190.447C462.612 190.685 462.411 191.016 462.314 191.391C459.982 199.786 458.327 208.399 457.367 217.127C457.111 219.425 460.247 220.332 460.503 218.016C460.825 215.087 461.234 212.176 461.709 209.284C463.52 209.067 465.341 208.965 467.163 208.977C467.812 211.514 468.439 214.057 469.023 216.618C469.508 218.91 472.606 217.856 472.094 215.589ZM462.363 205.589C462.86 202.979 463.41 200.387 464.032 197.807C464.785 200.313 465.494 202.838 466.176 205.368C464.905 205.381 463.656 205.46 462.363 205.589Z" fill="#3B455A"/>
<path d="M483.673 189.302C478.946 190.074 474.244 191.04 469.568 192.2C467.534 192.709 468.477 196.189 470.501 195.687C472.524 195.184 474.488 194.731 476.501 194.302C476.61 201.655 476.895 209.008 477.357 216.361C477.504 218.69 480.739 218.616 480.591 216.282C480.115 208.745 479.826 201.199 479.724 193.646C481.066 193.389 482.407 193.144 483.755 192.923C485.778 192.598 485.729 188.965 483.673 189.302Z" fill="#3B455A"/>
<path d="M498.754 214.523L491.085 214.897L490.927 206.931C492.199 206.85 493.473 206.85 494.745 206.931C495.169 206.915 495.572 206.714 495.867 206.371C496.162 206.028 496.327 205.57 496.327 205.092C496.312 204.616 496.134 204.164 495.829 203.832C495.523 203.5 495.115 203.315 494.69 203.315C493.419 203.235 492.144 203.235 490.872 203.315L490.676 193.125C492.912 193.156 495.143 193.242 497.374 193.407C499.446 193.56 499.359 189.927 497.297 189.773C495.116 189.61 492.916 189.51 490.698 189.473C487.834 189.43 487.425 191.213 487.458 194.02L487.605 201.704C487.703 206.569 487.798 211.433 487.889 216.294V216.527C487.889 217.593 488.271 218.708 489.465 218.647L498.836 218.187C500.903 218.052 500.837 214.419 498.754 214.523Z" fill="#3B455A"/>
<path d="M405.111 143.982L405.367 148.915L410.821 156.109L414.105 152.408L411.487 145.869L412.801 143.474L410.63 140.814L405.111 143.982Z" fill="#DA0100"/>
<path d="M433.783 69.0781L424.953 72.099L392.702 110.054L390.788 122.56L406.201 151.152L410.363 140.673L403.84 119.539L414.203 111.347L428.024 76.4129L433.783 69.0781Z" fill="#DA0100"/>
<path d="M300.733 67.277C286.553 63.9069 267.517 70.0773 261.638 83.4355C258.911 68.8579 237.885 57.1359 223.398 56.4373C185.164 54.5991 166.926 100.911 179.312 135.569C185.977 154.221 196.667 171.219 208.656 186.82C218.702 199.884 245.199 228.334 245.292 228.267C245.373 228.359 277.351 208.211 289.978 198.364C305.059 186.606 319.185 173.125 329.793 156.924C349.483 126.825 338.171 76.1375 300.733 67.277Z" fill="#F4BDB8"/>
<g style="mix-blend-mode:multiply" opacity="0.12">
<g style="mix-blend-mode:multiply" opacity="0.12">
<path d="M321.23 159.142C310.201 170.965 298.053 181.397 285.004 190.251C272.399 198.757 257.967 205.675 242.854 206.526C235.858 206.968 228.855 205.8 222.275 203.095C233.145 215.436 245.035 228.163 245.101 228.114C245.183 228.212 277.16 208.058 289.787 198.211C304.868 186.452 318.994 172.978 329.603 156.776C332.99 151.564 335.528 145.717 337.097 139.509C332.266 146.502 326.961 153.066 321.23 159.142Z" fill="#000100"/>
</g>
</g>
<path d="M347.449 173.848C347.572 172.689 347.491 171.515 347.21 170.391C346.929 169.268 346.454 168.217 345.812 167.3C345.17 166.383 344.373 165.617 343.467 165.045C342.561 164.474 341.564 164.109 340.533 163.97C339.501 163.832 338.456 163.923 337.456 164.239C336.456 164.554 335.521 165.088 334.704 165.81C333.888 166.531 333.206 167.426 332.698 168.444C332.189 169.461 331.864 170.581 331.741 171.74L322.392 208.886C321.305 213.212 319.441 217.242 316.916 220.729C314.391 224.216 311.258 227.085 307.709 229.162L281.486 244.524L300.772 219.094C301.096 218.743 301.388 218.358 301.644 217.942C302.615 216.379 303.069 214.483 302.926 212.584C302.783 210.685 302.053 208.902 300.863 207.544C299.672 206.186 298.096 205.339 296.408 205.149C294.719 204.96 293.025 205.441 291.62 206.508L265.488 227.489C259.903 231.972 255.209 237.711 251.705 244.343C248.2 250.974 245.963 258.352 245.133 266.007L243.268 283.25C242.846 287.118 243.378 291.042 244.805 294.594C246.232 298.146 248.5 301.189 251.361 303.392C254.223 305.596 257.567 306.874 261.031 307.087C264.495 307.301 267.944 306.442 271.003 304.604C271.908 304.069 272.774 303.454 273.593 302.766L327.301 264.009C330.835 261.463 333.825 258.072 336.058 254.078C338.291 250.083 339.711 245.584 340.217 240.902L347.476 173.848H347.449Z" fill="#F9E4DC"/>
<path d="M157.97 147.953C158.228 145.613 159.302 143.485 160.956 142.035C162.611 140.585 164.71 139.933 166.792 140.223C168.874 140.512 170.769 141.719 172.06 143.578C173.35 145.436 173.93 147.795 173.673 150.134L174.807 188.701C174.939 193.192 175.888 197.606 177.594 201.67C179.3 205.734 181.728 209.364 184.728 212.335L206.938 234.327L193.64 204.443C193.405 204.013 193.204 203.56 193.04 203.089C192.426 201.31 192.386 199.344 192.928 197.536C193.47 195.727 194.56 194.189 196.007 193.19C197.455 192.19 199.168 191.793 200.85 192.067C202.531 192.341 204.074 193.268 205.209 194.688L226.104 222.084C230.571 227.943 233.904 234.782 235.891 242.167C237.878 249.551 238.475 257.32 237.645 264.978L235.78 282.221C235.362 286.088 234.007 289.753 231.863 292.815C229.719 295.877 226.869 298.219 223.622 299.587C220.375 300.955 216.856 301.295 213.448 300.571C210.041 299.847 206.876 298.086 204.298 295.481C203.531 294.712 202.823 293.872 202.182 292.969L158.319 240.939C155.434 237.513 153.256 233.415 151.942 228.936C150.628 224.457 150.209 219.707 150.716 215.025L157.97 147.953Z" fill="#F9E4DC"/>
<path d="M344.433 174.35L348.311 176.814L346.663 186.023L341.373 188.364L336.949 185.337L339.017 180.999L338.111 180.202L338.073 178.29L344.433 174.35Z" fill="#E4D2B8"/>
<path d="M366.511 77.3076L375.549 94.4587L375.129 136.672L351.529 178.842L343.08 173.946L361.679 136.666L358.27 107.645L366.511 77.3076Z" fill="#D7E8F4"/>
<path d="M455.529 74.6667L478.279 65.4753L492.552 27.5027L500.417 28.0726L491.102 69.8137L482.833 80.3837L454.798 96.1807L455.529 74.6667Z" fill="#2B292A"/>
<path d="M498.732 27.95L500.761 23.5626L499.348 14.2488L494.843 15.5417L494.118 22.6619L491.898 23.9609L492.552 27.5026L498.732 27.95Z" fill="#DA0100"/>
<path d="M528.621 109.739C546.458 89.7003 546.458 57.211 528.621 37.1723C510.785 17.1335 481.866 17.1335 464.029 37.1723C446.193 57.211 446.193 89.7003 464.029 109.739C481.866 129.778 510.785 129.778 528.621 109.739Z" fill="#BCBEC0"/>
<path d="M523.735 104.25C538.873 87.2426 538.873 59.669 523.735 42.6621C508.597 25.6552 484.054 25.6552 468.916 42.6621C453.778 59.669 453.778 87.2426 468.916 104.25C484.054 121.256 508.597 121.256 523.735 104.25Z" fill="#CCCDCE"/>
<path d="M516.562 36.2466C521.291 44.5425 523.377 54.3947 522.48 64.1946C521.583 73.9945 517.755 83.1632 511.621 90.2036C505.487 97.2441 497.41 101.74 488.708 102.958C480.007 104.176 471.194 102.044 463.71 96.9097C466.857 102.421 471.069 107.065 476.033 110.495C480.998 113.925 486.587 116.053 492.385 116.721C498.182 117.389 504.039 116.58 509.52 114.354C515.001 112.127 519.965 108.541 524.041 103.861C528.118 99.1822 531.203 93.5304 533.067 87.3265C534.931 81.1227 535.525 74.5265 534.807 68.0288C534.088 61.5311 532.074 55.2991 528.915 49.7965C525.756 44.2939 521.534 39.6624 516.562 36.2466Z" fill="#9D9D9E"/>
<path d="M464.365 77.5038C464.352 69.4755 466.577 61.6442 470.728 55.1089C474.878 48.5736 480.746 43.6622 487.507 41.0641C494.268 38.466 501.584 38.3116 508.428 40.6225C515.271 42.9334 521.299 47.5936 525.665 53.9492C523.325 49.3835 520.175 45.407 516.409 42.2663C512.644 39.1256 508.345 36.8879 503.778 35.692C499.211 34.4961 494.474 34.3676 489.861 35.3144C485.247 36.2612 480.857 38.2631 476.961 41.1959C473.065 44.1287 469.748 47.9298 467.214 52.3632C464.681 56.7966 462.985 61.7677 462.233 66.9679C461.481 72.1682 461.689 77.4866 462.843 82.5931C463.997 87.6996 466.072 92.4851 468.941 96.6526C465.945 90.8321 464.367 84.2275 464.365 77.5038Z" fill="#F7F7F7"/>
<path d="M499.484 45.3401V50.8917C501.246 51.1461 502.92 51.9011 504.35 53.0854C505.836 54.5128 507.062 56.2504 507.96 58.2019L503.051 61.2963C501.568 58.2816 499.634 56.7762 497.248 56.7803C495.901 56.7318 494.587 57.2595 493.572 58.2571C493.105 58.7133 492.733 59.2788 492.481 59.914C492.23 60.5492 492.105 61.2385 492.116 61.9336C492.101 62.5519 492.199 63.167 492.403 63.7413C492.608 64.3156 492.915 64.8368 493.305 65.2732C494.079 66.1433 495.643 67.1645 497.995 68.337C499.728 69.1969 501.412 70.1729 503.041 71.2598C504.149 71.9726 505.159 72.8622 506.04 73.9008C507.941 76.1557 508.978 79.1597 508.926 82.265C508.969 85.3443 508.065 88.346 506.368 90.764C504.656 93.2152 502.264 94.9535 499.572 95.7028V101.561H495.165V95.8744C491.87 95.2739 489.358 94.0055 487.627 92.0691C485.896 90.1328 484.624 87.1344 483.809 83.0738L489.291 81.7625C490.05 84.6221 490.978 86.6646 492.072 87.8901C493.389 89.0667 495.032 89.6846 496.714 89.6353C498.395 89.586 500.008 88.8726 501.268 87.6205C501.876 86.9575 502.353 86.1582 502.667 85.2745C502.982 84.3909 503.128 83.4428 503.095 82.4917C503.129 81.6629 503.009 80.8352 502.743 80.0611C502.477 79.2869 502.072 78.5831 501.552 77.9941C500.84 77.295 500.067 76.6791 499.244 76.1558C497.985 75.3272 496.684 74.5785 495.35 73.9131C492.078 72.279 489.934 70.7737 488.92 69.397C487.757 67.8855 486.971 66.0557 486.641 64.093C486.31 62.1303 486.447 60.1044 487.038 58.2203C487.418 57.0536 487.984 55.974 488.707 55.0339C489.484 54.0385 490.406 53.1993 491.434 52.5523C492.579 51.8208 493.806 51.2664 495.083 50.9039V45.3585L499.484 45.3401Z" fill="#A9A9AA"/>
<path d="M141.995 170.331C139.764 164.618 135.614 160.126 130.448 157.837C130.475 157.003 130.492 156.17 130.492 155.349C130.482 141.685 126.557 128.387 119.297 117.424C112.037 106.462 101.828 98.4162 90.1818 94.4792C78.5351 90.5421 66.0696 90.9226 54.6304 95.5643C43.1912 100.206 33.3863 108.862 26.667 120.252C19.9476 131.641 16.6709 145.159 17.3219 158.803C17.9729 172.448 22.5171 185.494 30.2816 196.011C38.0462 206.529 48.6186 213.958 60.4339 217.199C72.2492 220.44 84.6795 219.322 95.8848 214.008C96.1902 213.861 96.4957 213.714 96.8066 213.555L99.37 215.84C101.857 218.053 104.322 220.13 105.571 221.221C106.444 221.962 107.18 222.587 107.699 223.016C108.064 223.322 108.375 223.58 108.669 223.794C109.306 224.302 110.07 224.573 110.851 224.566C111.072 224.57 111.293 224.553 111.511 224.517H111.817L112.046 224.364C112.662 224.1 113.355 223.531 114.811 222.33L116.262 221.104L116.845 220.614L118.945 218.843C121.852 216.392 125.796 212.948 128.043 210.699C134.042 204.713 138.378 198.916 141.351 192.985C144.738 186.238 144.978 177.764 141.995 170.331Z" fill="white"/>
<path d="M74.2261 214.805C61.1583 214.78 48.5643 209.304 38.8869 199.438C29.2095 189.572 23.1383 176.02 21.851 161.41C20.5637 146.8 24.152 132.174 31.9198 120.368C39.6877 108.562 51.0815 100.418 63.8914 97.5155C76.7013 94.6129 90.0142 97.1585 101.248 104.659C112.482 112.159 120.836 124.079 124.69 138.107C128.544 152.136 127.623 167.272 122.107 180.581C116.59 193.89 106.87 204.422 94.8321 210.136C88.3128 213.233 81.3044 214.821 74.2261 214.805ZM74.2261 101.873C63.2139 101.874 52.5424 106.164 44.03 114.012C35.5175 121.861 29.6908 132.783 27.5426 144.917C25.3944 157.051 27.0577 169.647 32.249 180.558C37.4402 191.469 45.8384 200.02 56.0124 204.754C66.1864 209.488 77.5069 210.113 88.0448 206.521C98.5828 202.93 107.686 195.344 113.804 185.058C119.922 174.771 122.676 162.419 121.596 150.107C120.517 137.794 115.671 126.284 107.884 117.535C103.474 112.554 98.229 108.605 92.4516 105.916C86.6742 103.228 80.4795 101.854 74.2261 101.873Z" fill="#DA0100"/>
<path d="M76.9042 98.8828H71.5754V211.814H76.9042V98.8828Z" fill="#DA0100"/>
<path d="M122.414 133.896H26.9111V139.883H122.414V133.896Z" fill="#DA0100"/>
<path d="M122.507 168.161H25.3401V174.148H122.507V168.161Z" fill="#DA0100"/>
<path d="M71.8862 214.186C71.5917 213.953 64.5831 208.432 57.5253 198.223C53.4888 192.43 50.185 186.038 47.7078 179.228C44.7444 171.069 43.2164 162.341 43.2081 153.529C43.1836 144.88 44.7199 136.314 47.7241 128.351C50.193 121.881 53.5317 115.875 57.6235 110.544C64.7139 101.212 71.8044 96.5791 72.0935 96.3892L74.7551 101.573C69.7853 105.132 65.3302 109.525 61.5451 114.6C57.8385 119.46 54.8147 124.928 52.5784 130.814C49.8869 138.004 48.5105 145.729 48.5313 153.529C48.5425 161.572 49.939 169.538 52.6438 176.985C54.9442 183.288 58.0074 189.203 61.7469 194.565C65.531 200.117 69.9696 205.064 74.9406 209.271L71.8862 214.186Z" fill="#DA0100"/>
<path d="M77.2969 214.186L74.2534 209.284C79.2714 205.028 83.7472 200.02 87.5562 194.4C91.2715 189.049 94.311 183.148 96.5884 176.863C99.2704 169.448 100.654 161.521 100.663 153.517C100.692 145.671 99.3062 137.9 96.5884 130.673C94.3338 124.765 91.2838 119.282 87.5453 114.417C81.0275 105.838 74.5261 101.598 74.4552 101.549L77.1169 96.3647C77.4114 96.5547 84.4855 101.187 91.5869 110.519C95.6835 115.854 99.0259 121.863 101.497 128.338C104.501 136.302 106.038 144.867 106.013 153.517C106 162.33 104.466 171.058 101.497 179.216C99.0199 186.026 95.7161 192.418 91.6796 198.211C84.5891 208.432 77.5914 213.953 77.2969 214.186Z" fill="#DA0100"/>
<path d="M124.743 160.527C119.578 160.018 113.06 163.131 111.484 168.162C109.957 163.119 102.043 159.975 96.8721 160.429C83.2366 161.654 78.5405 178.958 84.2674 190.656C87.349 196.955 91.7997 202.47 96.6539 207.427C100.723 211.575 111.217 220.387 111.249 220.356C111.282 220.325 121.858 211.686 125.976 207.574C130.884 202.672 135.373 197.2 138.52 190.938C144.335 179.295 138.373 161.862 124.743 160.527Z" fill="#F4BDB8"/>
<g style="mix-blend-mode:multiply" opacity="0.12">
<g style="mix-blend-mode:multiply" opacity="0.12">
<path d="M135.548 192.139C132.087 196.87 128.177 201.162 123.887 204.939C119.736 208.567 114.882 211.723 109.548 212.758C107.082 213.258 104.552 213.183 102.114 212.538C106.444 216.392 111.157 220.332 111.178 220.313C111.2 220.295 121.787 211.643 125.905 207.531C130.814 202.629 135.302 197.157 138.449 190.895C139.45 188.88 140.124 186.68 140.44 184.4C138.992 187.12 137.357 189.707 135.548 192.139Z" fill="#000100"/>
</g>
</g>
<path d="M20.8624 170.668C21.3533 172.861 24.7622 177.469 26.9111 177.819C31.869 178.634 28.002 172.628 27.0529 170.214C27.888 170.145 28.7153 169.987 29.5237 169.742C30.26 169.479 25.5476 163.314 24.6149 162.971C22.3514 162.15 21.4569 163.523 19.5098 164.712C19.9952 166.679 20.4152 168.664 20.8624 170.668Z" fill="#F4D0C1"/>
<path d="M43.1536 66.7561L0 128.197L18.8061 167.328L27.511 164.681L18.1952 131.721L30.0744 114.527L53.7729 93.8339L43.1536 66.7561Z" fill="#BCBEC0"/>
<path d="M48.1006 71.2353C50.1132 70.5245 52.1039 69.7463 53.6257 67.7671C56.08 64.5807 56.6909 58.6982 57.7872 54.7888C58.9435 50.665 60.3234 46.2102 63.5687 43.8878C65.6903 42.3743 67.8666 42.4172 70.2446 42.8155C71.8809 43.0913 71.8318 43.7898 73.348 43.0729C74.5098 42.5214 75.7424 40.4503 76.1788 39.1819C76.9151 37.0495 76.4733 34.5739 75.4315 32.6131C74.738 31.1939 73.7681 29.969 72.5942 29.03C71.4202 28.091 70.0726 27.462 68.652 27.1902C58.1145 24.9413 49.1314 30.4929 44.4244 41.541C42.1664 46.8536 42.3027 53.2631 39.9738 58.3428C38.5393 61.4802 36.3195 63.3307 35.0323 66.7193C31.678 75.5001 25.4329 86.3704 24.3693 95.905C24.3312 96.0776 24.324 96.257 24.3484 96.4327C24.3727 96.6084 24.4281 96.7769 24.5111 96.9283C24.9148 97.492 25.7111 97.0508 26.2074 96.5851L34.8796 88.4661C36.0576 87.4613 37.1057 86.2776 37.9939 84.9488C40.0611 81.5296 39.9902 76.5908 42.8154 73.9192C44.359 72.4608 46.2407 71.848 48.1006 71.2353Z" fill="#2E3644"/>
<path d="M155.668 160.275L163.397 165.257L165.437 161.636L160.817 156.905L162.486 155.698L155.412 152.346L152.838 155.784L155.668 160.275Z" fill="#F4D0C1"/>
</svg>
