<svg width="69" height="87" viewBox="0 0 69 87" fill="none" xmlns="http://www.w3.org/2000/svg">
<path d="M4.39746 1.43994C22.5482 6.5209 40.5624 14.2799 54.1337 27.8719C55.524 29.2236 56.8067 30.6833 57.9701 32.2375C60.3385 35.2926 62.3855 38.5875 64.078 42.0693C65.3426 44.7687 67.9356 50.7026 66.8741 53.5764C66.7911 53.7539 66.6894 53.922 66.5709 54.0777C65.4973 55.6369 64.4237 57.196 63.335 58.7429L60.2295 63.1391L61.1544 57.8349C61.2866 57.0362 61.3344 56.2256 61.297 55.4167C61.2667 54.8328 61.1423 54.0166 60.8027 53.6436C60.6541 53.4969 60.6086 53.5213 60.3417 53.4052C58.886 52.754 57.6305 51.794 56.3992 50.828C54.9457 49.662 53.5895 48.3778 52.3445 46.9882C50.4854 44.8177 48.5111 42.32 48.2867 39.2414C48.2556 38.4288 48.408 37.6197 48.7325 36.8752C49.2632 35.2549 48.7325 33.5124 47.8227 31.8829C41.2114 20.7121 16.3372 7.67344 4.39746 1.43994ZM4.39746 1.43994C16.9832 6.88776 42.5701 19.26 49.6211 30.8557C50.8979 32.9957 51.5954 35.7471 50.5582 38.1684C49.9759 40.6875 52.4142 43.5826 54.0397 45.4321C55.8004 47.3524 57.7839 49.0522 59.9474 50.4948C60.455 50.836 60.9993 51.118 61.5699 51.3355C63.6291 52.2893 63.7656 54.8389 63.6928 56.7711C63.6683 57.271 63.6157 57.7691 63.5351 58.2629L61.3637 57.3458C62.4353 55.7846 63.5159 54.2306 64.6057 52.6837L64.7057 52.54L64.6875 52.5675C64.6875 52.5675 64.6875 52.5675 64.6875 52.5828C64.7293 52.4025 64.7476 52.2175 64.7421 52.0325C64.2508 45.9824 59.7988 38.4588 56.2233 33.5766C52.8873 29.0856 48.6173 25.4018 44.3199 21.88C32.5712 12.4487 18.4449 6.50256 4.39746 1.43994Z" fill="white"/>
<path d="M0 3.36279C7.04193 25.3039 18.921 56.557 41.6693 65.6397C45.1091 66.9722 48.7241 67.7889 52.399 68.064C48.6385 68.4135 44.8463 68.0748 41.2053 67.0644C16.6798 60.0207 3.30261 26.6826 0 3.36279Z" fill="white"/>
<path d="M28.5074 32.4209C24.6771 33.39 19.658 31.8675 17.0195 28.9021C20.8316 27.9177 25.8447 29.4677 28.5074 32.4209Z" fill="white"/>
<path d="M45.5756 52.8884C39.3525 53.3378 30.6607 50.6934 25.7417 46.8108C31.9648 46.3492 40.6474 49.0242 45.5756 52.8884Z" fill="white"/>
<path d="M37.2447 42.4943C32.1467 43.0752 25.1503 40.9657 21.229 37.6029C26.3361 37.0128 33.3143 39.1651 37.2417 42.4943H37.2447Z" fill="white"/>
<path d="M0 0C23.837 18.8381 50.9494 46.1077 64.1264 73.7687C66.1068 78.0487 67.8476 82.4449 69 87C67.2116 82.6891 65.1429 78.5019 62.8072 74.4657C60.5115 70.4456 57.9913 66.5172 55.3559 62.6988C39.3523 39.7428 19.4881 19.9203 0 0Z" fill="white"/>
</svg>
