<svg width="21" height="21" viewBox="0 0 21 21" fill="none" xmlns="http://www.w3.org/2000/svg">
<path d="M15.7471 11.2782C15.7671 9.73456 16.5763 8.3087 17.8915 7.50019C17.058 6.30994 15.7121 5.58234 14.2599 5.5369C12.7319 5.37652 11.2506 6.45121 10.4719 6.45121C9.67827 6.45121 8.47946 5.55283 7.18854 5.57938C5.49004 5.63426 3.94495 6.57655 3.11859 8.0615C1.35887 11.1082 2.67146 15.586 4.35717 18.0488C5.20056 19.2547 6.18623 20.6018 7.476 20.554C8.7381 20.5016 9.20946 19.7492 10.7329 19.7492C12.2422 19.7492 12.6845 20.554 14.0004 20.5236C15.3547 20.5016 16.208 19.3123 17.0218 18.095C17.6278 17.2356 18.0941 16.286 18.4034 15.281C16.7949 14.6007 15.749 13.0247 15.7471 11.2782Z" fill="black"/>
<path d="M13.2616 3.91721C14 3.03077 14.3637 1.8914 14.2757 0.741058C13.1476 0.859546 12.1054 1.39872 11.3571 2.25115C10.6181 3.09219 10.2437 4.19249 10.3164 5.30971C11.4597 5.32148 12.5451 4.80824 13.2616 3.91721Z" fill="black"/>
</svg>
