<svg width="43" height="54" viewBox="0 0 43 54" fill="none" xmlns="http://www.w3.org/2000/svg">
<path d="M2.74023 0.893738C14.0515 4.04744 25.2778 8.86338 33.7353 17.2998C34.6017 18.1388 35.4011 19.0448 36.1261 20.0095C37.6021 21.9057 38.8777 23.9509 39.9324 26.1119C40.7205 27.7875 42.3364 31.4706 41.675 33.2543C41.6232 33.3645 41.5598 33.4688 41.486 33.5655C40.8169 34.5332 40.1479 35.5009 39.4694 36.4611L37.5341 39.1897L38.1105 35.8975C38.1929 35.4018 38.2227 34.8986 38.1994 34.3966C38.1805 34.0341 38.103 33.5275 37.8913 33.296C37.7987 33.2049 37.7703 33.2201 37.604 33.148C36.6969 32.7438 35.9144 32.148 35.1471 31.5484C34.2413 30.8247 33.3962 30.0276 32.6202 29.1651C31.4617 27.8178 30.2314 26.2675 30.0915 24.3567C30.0721 23.8524 30.1671 23.3502 30.3693 22.888C30.7001 21.8824 30.3693 20.8008 29.8023 19.7894C25.6823 12.8558 10.1809 4.76281 2.74023 0.893738ZM2.74023 0.893738C10.5835 4.27514 26.529 11.9545 30.9231 19.1518C31.7187 20.4801 32.1534 22.1879 31.5071 23.6907C31.1442 25.2543 32.6637 27.0512 33.6767 28.1992C34.7739 29.3911 36.01 30.4462 37.3583 31.3415C37.6746 31.5533 38.0138 31.7284 38.3695 31.8634C39.6527 32.4554 39.7378 34.0379 39.6924 35.2372C39.6771 35.5475 39.6443 35.8566 39.5941 36.1632L38.2409 35.5939C38.9087 34.6249 39.5822 33.6603 40.2613 32.7002L40.3237 32.611L40.3123 32.6281C40.3123 32.6281 40.3123 32.6281 40.3123 32.6376C40.3383 32.5257 40.3498 32.4109 40.3463 32.296C40.0402 28.5408 37.2657 23.871 35.0375 20.8406C32.9585 18.0531 30.2975 15.7666 27.6195 13.5806C20.2978 7.72675 11.4945 4.03605 2.74023 0.893738Z" fill="#AC1C43"/>
<path d="M0 2.08728C4.38845 15.7059 11.7914 35.1044 25.9678 40.7419C28.1115 41.5689 30.3643 42.0759 32.6544 42.2467C30.3109 42.4636 27.9477 42.2534 25.6787 41.6262C10.3947 37.2543 2.05815 16.5617 0 2.08728Z" fill="#F6B321"/>
<path d="M17.7656 20.1233C15.3786 20.7249 12.2507 19.7799 10.6064 17.9393C12.9821 17.3283 16.1062 18.2903 17.7656 20.1233Z" fill="#F6B321"/>
<path d="M28.4022 32.8273C24.5241 33.1063 19.1075 31.4649 16.042 29.055C19.9202 28.7685 25.3311 30.4289 28.4022 32.8273Z" fill="#F6B321"/>
<path d="M23.2103 26.3757C20.0333 26.7363 15.6732 25.427 13.2295 23.3397C16.4122 22.9734 20.7609 24.3093 23.2084 26.3757H23.2103Z" fill="#F6B321"/>
<path d="M0 0C14.855 11.6926 31.7511 28.6186 39.9629 45.7875C41.197 48.444 42.2818 51.1727 43 54C41.8855 51.3243 40.5963 48.7253 39.1407 46.2201C37.71 43.7249 36.1395 41.2865 34.4971 38.9165C24.5239 24.6679 12.1448 12.3643 0 0Z" fill="#E30613"/>
</svg>
