<svg width="40" height="40" viewBox="0 0 40 40" fill="none" xmlns="http://www.w3.org/2000/svg">
<g clip-path="url(#clip0_342_49)">
<path d="M40.05 8.3499C38.5719 9.00615 36.9875 9.44678 35.3219 9.64678C37.0219 8.62803 38.3281 7.01553 38.9406 5.09678C37.3531 6.0374 35.5875 6.72178 33.7156 7.09053C32.2156 5.49053 30.0781 4.49365 27.7125 4.49365C23.1688 4.49365 19.4844 8.1749 19.4844 12.7187C19.4844 13.3624 19.5594 13.9905 19.7 14.5937C12.8625 14.2499 6.80313 10.9749 2.74375 5.99678C2.03438 7.21553 1.63125 8.62803 1.63125 10.1343C1.63125 12.9874 3.08125 15.5062 5.29063 16.9843C3.94062 16.9405 2.67188 16.5687 1.5625 15.953C1.5625 15.9874 1.5625 16.0218 1.5625 16.0562C1.5625 20.0437 4.4 23.3655 8.15938 24.1249C7.47188 24.3124 6.74375 24.4124 5.99375 24.4124C5.4625 24.4124 4.94688 24.3624 4.44375 24.2624C5.49375 27.528 8.53125 29.9124 12.1281 29.978C9.31563 32.1843 5.76875 33.4968 1.9125 33.4968C1.24688 33.4968 0.59375 33.4593 -0.046875 33.3812C3.59063 35.7187 7.91563 37.078 12.5625 37.078C27.6938 37.078 35.9688 24.5437 35.9688 13.6749C35.9688 13.3187 35.9594 12.9593 35.9469 12.6093C37.5531 11.4499 38.9469 9.9999 40.05 8.3499Z" fill="white"/>
</g>
<defs>
<clipPath id="clip0_342_49">
<rect width="40" height="40" fill="white"/>
</clipPath>
</defs>
</svg>
