<svg width="69" height="87" viewBox="0 0 69 87" fill="none" xmlns="http://www.w3.org/2000/svg">
<path d="M4.39746 1.43991C22.5482 6.52087 40.5624 14.2799 54.1337 27.8719C55.524 29.2236 56.8067 30.6833 57.9701 32.2375C60.3385 35.2925 62.3855 38.5875 64.078 42.0693C65.3426 44.7687 67.9356 50.7026 66.8741 53.5763C66.7911 53.7539 66.6894 53.922 66.5709 54.0777C65.4973 55.6368 64.4237 57.196 63.335 58.7429L60.2295 63.139L61.1544 57.8349C61.2866 57.0362 61.3344 56.2256 61.297 55.4167C61.2667 54.8328 61.1423 54.0165 60.8027 53.6436C60.6541 53.4968 60.6086 53.5213 60.3417 53.4051C58.886 52.754 57.6305 51.794 56.3992 50.828C54.9457 49.662 53.5895 48.3778 52.3445 46.9882C50.4854 44.8176 48.5111 42.3199 48.2867 39.2414C48.2556 38.4288 48.408 37.6197 48.7325 36.8752C49.2632 35.2549 48.7325 33.5123 47.8227 31.8829C41.2114 20.7121 16.3372 7.67341 4.39746 1.43991ZM4.39746 1.43991C16.9832 6.88773 42.5701 19.26 49.6211 30.8557C50.8979 32.9957 51.5954 35.7471 50.5582 38.1684C49.9759 40.6874 52.4142 43.5825 54.0397 45.4321C55.8004 47.3524 57.7839 49.0522 59.9474 50.4947C60.455 50.8359 60.9993 51.118 61.5699 51.3354C63.6291 52.2893 63.7656 54.8389 63.6928 56.771C63.6683 57.2709 63.6157 57.769 63.5351 58.2629L61.3637 57.3458C62.4353 55.7846 63.5159 54.2305 64.6057 52.6836L64.7057 52.54L64.6875 52.5675C64.6875 52.5675 64.6875 52.5675 64.6875 52.5828C64.7293 52.4025 64.7476 52.2175 64.7421 52.0325C64.2508 45.9824 59.7988 38.4588 56.2233 33.5765C52.8873 29.0856 48.6173 25.4018 44.3199 21.8799C32.5712 12.4487 18.4449 6.50253 4.39746 1.43991Z" fill="#AC1C43"/>
<path d="M0 3.36285C7.04193 25.3039 18.921 56.557 41.6693 65.6398C45.1091 66.9722 48.7241 67.789 52.399 68.0641C48.6385 68.4136 44.8463 68.0749 41.2053 67.0644C16.6798 60.0208 3.30261 26.6827 0 3.36285Z" fill="#F6B321"/>
<path d="M28.5074 32.421C24.6771 33.3901 19.658 31.8676 17.0195 28.9022C20.8316 27.9178 25.8447 29.4678 28.5074 32.421Z" fill="#F6B321"/>
<path d="M45.5754 52.8885C39.3523 53.3379 30.6606 50.6934 25.7416 46.8109C31.9647 46.3493 40.6473 49.0243 45.5754 52.8885Z" fill="#F6B321"/>
<path d="M37.2446 42.4942C32.1466 43.0751 25.1502 40.9656 21.2289 37.6028C26.3359 37.0128 33.3142 39.165 37.2415 42.4942H37.2446Z" fill="#F6B321"/>
<path d="M0 0C23.837 18.8381 50.9494 46.1077 64.1264 73.7687C66.1068 78.0487 67.8476 82.4449 69 87C67.2116 82.6891 65.1429 78.5019 62.8072 74.4657C60.5115 70.4456 57.9913 66.5172 55.3559 62.6988C39.3523 39.7428 19.4881 19.9203 0 0Z" fill="#E30613"/>
</svg>
