<svg width="659" height="814" viewBox="0 0 659 814" fill="none" xmlns="http://www.w3.org/2000/svg">
<path d="M41.9985 13.4723C215.351 61.0114 387.4 133.607 517.016 260.779C530.294 273.425 542.545 287.083 553.656 301.624C576.277 330.208 595.826 361.037 611.991 393.613C624.069 418.87 648.834 474.39 638.696 501.277C637.903 502.939 636.932 504.511 635.8 505.968C625.546 520.556 615.293 535.144 604.866 549.617L575.322 590.749L584.156 541.122C585.418 533.649 585.875 526.065 585.517 518.497C585.228 513.033 584.04 505.396 580.796 501.907C579.377 500.534 578.942 500.762 576.393 499.675C562.491 493.583 550.499 484.601 538.74 475.563C524.828 464.657 511.846 452.642 499.927 439.637C482.172 419.328 463.316 395.959 461.173 367.155C460.876 359.552 462.332 351.982 465.431 345.016C470.499 329.856 465.431 313.552 456.741 298.306C393.599 193.789 156.032 71.7949 41.9985 13.4723ZM41.9985 13.4723C162.201 64.4438 406.575 180.202 473.917 288.696C486.111 308.718 492.773 334.461 482.867 357.115C477.306 380.685 500.593 407.772 516.118 425.049C532.926 443.033 551.87 458.947 572.541 472.445C577.389 475.637 582.587 478.276 588.037 480.311C607.704 489.235 609.008 513.091 608.312 531.168C608.078 535.845 607.575 540.506 606.806 545.127L586.068 536.545C596.302 521.939 606.623 507.398 617.031 492.925L617.987 491.581L617.813 491.838C617.813 491.838 617.813 491.838 617.813 491.981C618.211 490.294 618.387 488.564 618.334 486.832C613.642 430.226 571.122 359.833 536.973 314.153C505.112 272.134 464.33 237.667 423.287 204.716C311.079 116.474 176.162 60.8398 41.9985 13.4723Z" fill="white" fill-opacity="0.3"/>
<path d="M0 31.4639C67.2555 236.752 180.709 529.166 397.972 614.147C430.824 626.614 465.35 634.256 500.448 636.83C464.533 640.099 428.314 636.931 393.54 627.476C159.305 561.574 31.5423 249.652 0 31.4639Z" fill="white" fill-opacity="0.3"/>
<path d="M260.68 303.341C224.098 312.408 176.162 298.163 150.963 270.418C187.371 261.208 235.25 275.71 260.68 303.341Z" fill="white" fill-opacity="0.3"/>
<path d="M423.693 494.842C364.257 499.046 281.245 474.304 234.265 437.978C293.7 433.659 376.625 458.687 423.693 494.842Z" fill="white" fill-opacity="0.3"/>
<path d="M344.127 397.589C295.438 403.024 228.617 383.288 191.166 351.824C239.942 346.303 306.589 366.44 344.098 397.589H344.127Z" fill="white" fill-opacity="0.3"/>
<path d="M0 0C227.661 176.255 486.603 431.399 612.454 690.204C631.368 730.249 647.993 771.381 659 814C641.92 773.666 622.162 734.489 599.855 696.725C577.928 659.112 553.859 622.356 528.689 586.63C375.843 371.846 186.126 186.381 0 0Z" fill="white" fill-opacity="0.3"/>
</svg>
