<svg width="30" height="37" viewBox="0 0 30 37" fill="none" xmlns="http://www.w3.org/2000/svg">
<path d="M1.91211 0.612381C9.80373 2.77325 17.636 6.07306 23.5366 11.8536C24.141 12.4284 24.6987 13.0492 25.2046 13.7102C26.2343 15.0095 27.1243 16.4108 27.8602 17.8915C28.41 19.0396 29.5374 21.5632 29.0759 22.7853C29.0398 22.8608 28.9956 22.9323 28.944 22.9986C28.4773 23.6616 28.0105 24.3247 27.5358 24.9826L26.1909 26.8522L26.593 24.5965C26.6505 24.2568 26.6713 23.912 26.655 23.568C26.6418 23.3197 26.5878 22.9726 26.4401 22.8139C26.3755 22.7515 26.3557 22.7619 26.2397 22.7125C25.6067 22.4356 25.0609 22.0273 24.5255 21.6165C23.8922 21.1208 23.3012 20.5746 22.7586 19.9835C21.9504 19.0604 21.092 17.9981 20.9944 16.6889C20.9809 16.3433 21.0471 15.9992 21.1882 15.6826C21.419 14.9935 21.1882 14.2524 20.7927 13.5594C17.9182 8.8086 7.1033 3.26341 1.91211 0.612381ZM1.91211 0.612381C7.38416 2.92927 18.5089 8.19102 21.5746 13.1225C22.1297 14.0326 22.433 15.2028 21.982 16.2325C21.7288 17.3039 22.789 18.5351 23.4957 19.3204C24.2608 20.1379 25.1233 20.8612 26.0643 21.4748C26.285 21.6199 26.5216 21.7398 26.7697 21.8323C27.665 22.238 27.7244 23.3223 27.6927 24.144C27.6821 24.3566 27.6592 24.5684 27.6241 24.7785L26.6801 24.3884C27.1459 23.7245 27.6158 23.0636 28.0896 22.4057L28.1331 22.3446L28.1252 22.3563C28.1252 22.3563 28.1252 22.3563 28.1252 22.3628C28.1433 22.2861 28.1513 22.2074 28.1489 22.1288C27.9353 19.5557 25.9997 16.356 24.4451 14.2797C22.9947 12.3697 21.1381 10.803 19.2697 9.30526C14.1616 5.29426 8.01971 2.76545 1.91211 0.612381Z" fill="black"/>
<path d="M0 1.43018C3.06171 10.7614 8.22653 24.053 18.1171 27.9158C19.6126 28.4824 21.1844 28.8298 22.7822 28.9468C21.1472 29.0954 19.4984 28.9514 17.9153 28.5216C7.25211 25.5261 1.43592 11.3478 0 1.43018Z" fill="black"/>
<path d="M11.8673 13.7882C10.2019 14.2004 8.01971 13.5529 6.87256 12.2917C8.53 11.8731 10.7096 12.5323 11.8673 13.7882Z" fill="black"/>
<path d="M19.288 22.4928C16.5823 22.6839 12.8033 21.5593 10.6646 19.9081C13.3702 19.7118 17.1453 20.8494 19.288 22.4928Z" fill="black"/>
<path d="M15.666 18.0722C13.4495 18.3193 10.4075 17.4222 8.70264 15.992C10.9231 15.7411 13.9571 16.6564 15.6647 18.0722H15.666Z" fill="black"/>
<path d="M0 0C10.3639 8.0116 22.1519 19.609 27.8811 31.3729C28.7421 33.1931 29.4989 35.0628 30 37C29.2224 35.1666 28.323 33.3859 27.3075 31.6693C26.3093 29.9596 25.2136 28.2889 24.0678 26.665C17.1097 16.9021 8.4731 8.47185 0 0Z" fill="black"/>
</svg>
