<svg width="594" height="418" viewBox="0 0 594 418" fill="none" xmlns="http://www.w3.org/2000/svg">
<g opacity="0.7" clip-path="url(#clip0_196_306)">
<path d="M0.405273 -144.875C167.181 -98.5626 332.704 -27.8396 457.402 96.051C470.176 108.372 481.963 121.677 492.653 135.843C514.415 163.69 533.223 193.723 548.774 225.459C560.394 250.064 584.219 304.152 574.466 330.345C573.703 331.964 572.769 333.496 571.68 334.915C561.815 349.127 551.951 363.338 541.919 377.438L513.496 417.509L521.995 369.162C523.21 361.882 523.649 354.493 523.305 347.12C523.026 341.798 521.884 334.358 518.763 330.958C517.397 329.621 516.979 329.844 514.527 328.785C501.152 322.849 489.615 314.1 478.302 305.294C464.917 294.67 452.429 282.964 440.962 270.295C423.88 250.51 405.74 227.744 403.677 199.683C403.392 192.277 404.792 184.902 407.774 178.115C412.65 163.347 407.774 147.463 399.414 132.611C338.667 30.7897 110.112 -88.0572 0.405273 -144.875ZM0.405273 -144.875C116.048 -95.2187 351.151 17.5535 415.938 123.248C427.67 142.754 434.079 167.833 424.549 189.902C419.199 212.864 441.603 239.253 456.539 256.083C472.708 273.603 490.934 289.107 510.821 302.257C515.484 305.367 520.486 307.938 525.729 309.92C544.65 318.614 545.904 341.854 545.235 359.465C545.01 364.021 544.526 368.562 543.786 373.063L523.834 364.704C533.68 350.474 543.61 336.309 553.623 322.208L554.542 320.899L554.375 321.15C554.375 321.15 554.375 321.15 554.375 321.289C554.759 319.646 554.927 317.96 554.877 316.273C550.362 261.127 509.456 192.55 476.602 148.048C445.95 107.114 406.715 73.5356 367.229 41.4344C259.277 -44.5311 129.479 -98.7298 0.405273 -144.875Z" fill="white"/>
<path d="M-40 -127.348C24.7041 72.6439 133.854 357.514 342.874 440.303C374.481 452.448 407.697 459.893 441.463 462.4C406.91 465.586 372.066 462.499 338.611 453.288C113.261 389.086 -9.65427 85.2113 -40 -127.348Z" fill="white"/>
<path d="M210.791 137.515C175.597 146.348 129.479 132.471 105.236 105.442C140.263 96.4689 186.325 110.597 210.791 137.515Z" fill="white"/>
<path d="M367.619 324.075C310.439 328.172 230.576 304.068 185.378 268.679C242.558 264.471 322.338 288.853 367.619 324.075Z" fill="white"/>
<path d="M291.072 229.332C244.23 234.627 179.944 215.399 143.914 184.747C190.839 179.369 254.958 198.986 291.044 229.332H291.072Z" fill="white"/>
<path d="M-40 -158C179.024 13.708 428.143 262.269 549.22 514.398C567.416 553.409 583.411 593.48 594 635C577.568 595.706 558.559 557.54 537.098 520.751C516.004 484.108 492.848 448.3 468.632 413.496C321.585 204.253 139.065 23.5724 -40 -158Z" fill="white"/>
</g>
<defs>
<clipPath id="clip0_196_306">
<rect width="594" height="418" fill="white"/>
</clipPath>
</defs>
</svg>
