<svg width="58" height="72" viewBox="0 0 58 72" fill="none" xmlns="http://www.w3.org/2000/svg">
<path d="M3.69629 1.19165C18.9534 5.39658 34.0958 11.8178 45.5036 23.0664C46.6722 24.1851 47.7504 25.3931 48.7284 26.6793C50.7192 29.2076 52.4399 31.9345 53.8625 34.8159C54.9256 37.05 57.1051 41.9608 56.2129 44.339C56.1431 44.486 56.0576 44.6251 55.958 44.7539C55.0556 46.0443 54.1531 47.3346 53.2354 48.6148L50.6352 52.253L51.4127 47.8634C51.5238 47.2024 51.564 46.5315 51.5325 45.8621C51.507 45.3789 51.4025 44.7033 51.117 44.3947C50.9921 44.2732 50.9539 44.2935 50.7295 44.1973C49.5059 43.6584 48.4505 42.864 47.4155 42.0645C46.1911 41.0999 45.0486 40.0371 43.9996 38.8868C42.4369 37.0904 40.7773 35.0234 40.5887 32.4756C40.5626 31.8031 40.6907 31.1335 40.9634 30.5174C41.4096 29.1765 40.9634 27.7343 40.1987 26.3858C34.6414 17.141 13.7326 6.35041 3.69629 1.19165ZM3.69629 1.19165C14.2756 5.70019 35.7834 15.9393 41.7104 25.5357C42.7836 27.3068 43.3699 29.5838 42.4981 31.5876C42.0086 33.6724 44.0582 36.0683 45.4246 37.5965C46.9038 39.1872 48.5712 40.5948 50.3905 41.7887C50.8171 42.0711 51.2747 42.3045 51.7543 42.4845C53.4852 43.2739 53.6 45.3839 53.5388 46.9829C53.5182 47.3966 53.4739 47.8088 53.4062 48.2176L51.581 47.4586C52.4817 46.1666 53.3901 44.8804 54.3061 43.6002L54.3902 43.4813L54.3749 43.5041C54.3749 43.5041 54.3749 43.5041 54.3749 43.5168C54.41 43.3676 54.4254 43.2145 54.4208 43.0613C54.0078 38.0544 50.2656 31.828 47.26 27.7875C44.4559 24.0708 40.8666 21.0221 37.2543 18.1075C27.3786 10.3023 15.5043 5.3814 3.69629 1.19165Z" fill="white"/>
<path d="M0 2.78308C5.9193 20.9412 15.9046 46.8059 35.0264 54.3226C37.9178 55.4253 40.9565 56.1013 44.0455 56.3289C40.8845 56.6182 37.6969 56.3379 34.6363 55.5016C14.0207 49.6724 2.77611 22.0823 0 2.78308Z" fill="white"/>
<path d="M22.9431 26.8311C19.7234 27.6331 15.5044 26.3731 13.2866 23.919C16.491 23.1043 20.7049 24.387 22.9431 26.8311Z" fill="white"/>
<path d="M37.2901 43.7698C32.0591 44.1417 24.753 41.9533 20.6182 38.7401C25.8492 38.3581 33.1476 40.5719 37.2901 43.7698Z" fill="white"/>
<path d="M30.2872 35.1676C26.0019 35.6483 20.1209 33.9026 16.8247 31.1196C21.1176 30.6313 26.9834 32.4124 30.2846 35.1676H30.2872Z" fill="white"/>
<path d="M0 0C20.0369 15.5901 42.827 38.1581 53.9034 61.05C55.568 64.592 57.0313 68.2302 58 72C56.4967 68.4323 54.7578 64.9671 52.7945 61.6268C50.8647 58.2998 48.7463 55.0487 46.531 51.8887C33.0788 32.8906 16.3813 16.4858 0 0Z" fill="white"/>
</svg>
