<svg width="21" height="21" viewBox="0 0 21 21" fill="none" xmlns="http://www.w3.org/2000/svg">
<path d="M10.5 4.15625C12.0487 4.15625 13.4356 4.69 14.5294 5.73125L17.5262 2.73437C15.7062 1.04125 13.3306 0 10.5 0C6.39624 0 2.84812 2.35375 1.12 5.78375L4.61124 8.49187C5.43812 6.0025 7.76124 4.15625 10.5 4.15625Z" fill="#EA4335"/>
<path d="M20.5537 10.7406C20.5537 10.0537 20.4881 9.38875 20.3875 8.75H10.5V12.6962H16.1612C15.9075 13.9913 15.1725 15.0938 14.07 15.8375L17.4519 18.4625C19.425 16.6337 20.5537 13.93 20.5537 10.7406Z" fill="#4285F4"/>
<path d="M4.60687 12.5081C4.39687 11.8738 4.27437 11.2 4.27437 10.5C4.27437 9.8 4.3925 9.12625 4.60687 8.49188L1.11563 5.78375C0.4025 7.20125 0 8.8025 0 10.5C0 12.1975 0.4025 13.7987 1.12 15.2162L4.60687 12.5081Z" fill="#FBBC05"/>
<path d="M10.5 21C13.335 21 15.7194 20.0681 17.4519 18.4581L14.07 15.8331C13.1294 16.4675 11.9175 16.8394 10.5 16.8394C7.76123 16.8394 5.4381 14.9931 4.60685 12.5038L1.1156 15.2119C2.8481 18.6463 6.39623 21 10.5 21Z" fill="#34A853"/>
</svg>
