<svg width="450" height="424" viewBox="0 0 450 424" fill="none" xmlns="http://www.w3.org/2000/svg">
<g clip-path="url(#clip0_196_53)">
<path d="M65.9097 389.486C153.776 435.097 296.234 435.097 384.11 389.486C471.987 343.875 471.967 269.93 384.11 224.309C296.254 178.688 153.776 178.708 65.8997 224.309C-21.9766 269.91 -21.9566 343.875 65.9097 389.486Z" fill="#F5F5F5"/>
<path d="M354.129 325.896C376.432 325.896 394.512 317.333 394.512 306.771C394.512 296.209 376.432 287.646 354.129 287.646C331.825 287.646 313.745 296.209 313.745 306.771C313.745 317.333 331.825 325.896 354.129 325.896Z" fill="#E0E0E0"/>
<path d="M69.2692 341.947C91.5725 341.947 109.653 333.385 109.653 322.823C109.653 312.261 91.5725 303.698 69.2692 303.698C46.9659 303.698 28.8855 312.261 28.8855 322.823C28.8855 333.385 46.9659 341.947 69.2692 341.947Z" fill="#E0E0E0"/>
<path d="M219.476 398.169L117.232 339.553C116.884 339.328 116.593 339.024 116.385 338.667C116.177 338.31 116.056 337.909 116.032 337.496V335.957C116.056 335.544 116.177 335.143 116.385 334.786C116.593 334.429 116.884 334.125 117.232 333.9L241.892 262.369C242.263 262.183 242.672 262.086 243.087 262.086C243.502 262.086 243.912 262.183 244.282 262.369L346.526 320.985C346.873 321.211 347.162 321.514 347.368 321.872C347.575 322.229 347.694 322.63 347.716 323.041V324.591C347.694 325.003 347.575 325.403 347.368 325.761C347.162 326.118 346.873 326.422 346.526 326.648L221.866 398.169C221.495 398.355 221.086 398.451 220.671 398.451C220.256 398.451 219.846 398.355 219.476 398.169Z" fill="#EBEBEB"/>
<path d="M346.526 322.336L221.856 393.867C221.487 394.058 221.077 394.157 220.661 394.157C220.245 394.157 219.835 394.058 219.466 393.867L117.232 335.251C117.088 335.202 116.964 335.11 116.876 334.987C116.788 334.864 116.74 334.717 116.74 334.566C116.74 334.415 116.788 334.268 116.876 334.145C116.964 334.022 117.088 333.93 117.232 333.88L241.892 262.349C242.263 262.163 242.672 262.067 243.087 262.067C243.502 262.067 243.912 262.163 244.282 262.349L346.526 320.965C346.67 321.014 346.794 321.107 346.882 321.23C346.97 321.353 347.018 321.5 347.018 321.651C347.018 321.801 346.97 321.949 346.882 322.071C346.794 322.194 346.67 322.287 346.526 322.336Z" fill="#FAFAFA"/>
<path d="M346.526 322.336L221.856 393.867C221.487 394.058 221.077 394.157 220.661 394.157C220.245 394.157 219.835 394.058 219.466 393.867L117.232 335.251C117.088 335.202 116.964 335.11 116.876 334.987C116.788 334.864 116.74 334.717 116.74 334.566C116.74 334.415 116.788 334.268 116.876 334.145C116.964 334.022 117.088 333.93 117.232 333.88L241.892 262.349C242.263 262.163 242.672 262.067 243.087 262.067C243.502 262.067 243.912 262.163 244.282 262.349L346.526 320.965C346.67 321.014 346.794 321.107 346.882 321.23C346.97 321.353 347.018 321.5 347.018 321.651C347.018 321.801 346.97 321.949 346.882 322.071C346.794 322.194 346.67 322.287 346.526 322.336Z" fill="#FAFAFA"/>
<path d="M220.666 394.542V398.427C220.251 398.433 219.841 398.334 219.476 398.139L117.232 339.523C116.882 339.299 116.591 338.996 116.383 338.638C116.174 338.281 116.054 337.879 116.032 337.467V335.927C116.056 335.557 116.157 335.197 116.329 334.868C116.502 334.54 116.741 334.251 117.032 334.019C116.602 334.397 116.672 334.914 117.252 335.241L219.496 393.857C219.594 393.912 219.698 393.955 219.806 393.986L220.666 394.542Z" fill="#E0E0E0"/>
<path d="M159.015 329.271C159.023 329.32 159.023 329.37 159.015 329.42L158.905 329.569L158.335 329.797L145.038 330.473C144.832 330.506 144.635 330.584 144.463 330.701C144.29 330.818 144.145 330.97 144.038 331.148C143.828 331.506 143.938 331.794 144.288 331.814L156.826 332.45L157.116 332.678C157.104 332.731 157.084 332.781 157.056 332.827C156.995 332.925 156.911 333.006 156.812 333.065C156.713 333.124 156.601 333.158 156.486 333.165L143.838 332.519C143.128 332.519 142.898 331.883 143.318 331.148C143.545 330.776 143.853 330.458 144.22 330.219C144.587 329.98 145.003 329.826 145.437 329.767L158.845 329.082C158.955 329.082 159.015 329.151 159.015 329.271Z" fill="#455A64"/>
<path d="M276.177 321.263C276.172 321.342 276.144 321.418 276.097 321.482C276.031 321.574 275.944 321.65 275.844 321.703C275.743 321.757 275.631 321.786 275.517 321.79C275.517 321.79 272.198 321.402 266.129 320.886C265.949 320.886 265.899 320.697 266.029 320.498C266.092 320.404 266.176 320.326 266.275 320.271C266.374 320.216 266.485 320.185 266.599 320.18C272.678 320.697 275.977 321.084 276.007 321.084C276.053 321.087 276.096 321.107 276.128 321.14C276.16 321.173 276.177 321.217 276.177 321.263Z" fill="#455A64"/>
<path d="M265.139 340.308C265.152 340.35 265.152 340.395 265.139 340.437C265.087 340.541 265.011 340.631 264.917 340.7C264.823 340.769 264.714 340.815 264.599 340.835C264.599 340.835 260.809 341.232 254.13 341.769C253.921 341.769 253.831 341.639 253.93 341.451C253.985 341.347 254.063 341.258 254.158 341.191C254.254 341.124 254.364 341.08 254.48 341.063C261.149 340.527 264.889 340.129 264.929 340.129C264.969 340.129 265.139 340.189 265.139 340.308Z" fill="#455A64"/>
<path d="M251.001 319.216C250.999 319.287 250.978 319.355 250.941 319.415C250.875 319.509 250.789 319.588 250.689 319.645C250.588 319.701 250.476 319.735 250.361 319.743C244.812 319.405 239.003 319.117 233.094 318.869C206.148 317.786 197.18 318.769 189.001 320.071C180.122 321.482 157.536 329.648 155.606 331.128C155.826 332.599 168.974 340.725 176.223 342.106C182.912 343.388 190.75 344.352 219.006 343.179C225.185 342.921 231.344 342.613 237.323 342.255C237.523 342.255 237.603 342.394 237.503 342.583C237.448 342.685 237.369 342.772 237.274 342.837C237.178 342.903 237.068 342.945 236.953 342.961C230.954 343.318 224.805 343.626 218.626 343.885C190.291 345.067 182.422 344.093 175.693 342.812C169.194 341.56 153.806 332.946 154.856 331.128C155.906 329.31 181.322 320.637 189.281 319.365C197.509 318.064 206.518 317.07 233.534 318.163C239.443 318.402 245.262 318.7 250.821 319.038C250.846 319.034 250.87 319.037 250.894 319.045C250.917 319.052 250.938 319.065 250.956 319.083C250.973 319.1 250.986 319.121 250.994 319.144C251.002 319.167 251.004 319.192 251.001 319.216Z" fill="#455A64"/>
<path d="M200.459 325.157C199.789 323.618 198.189 322.763 195.98 322.763C193.355 322.897 190.817 323.742 188.641 325.207C187.417 325.978 186.284 326.881 185.261 327.899C184.305 328.853 183.472 329.921 182.782 331.079C181.853 332.512 181.418 334.207 181.542 335.907C181.852 338.093 183.651 339.394 186.341 339.384C188.967 339.255 191.506 338.409 193.68 336.94C196.068 335.465 198.074 333.454 199.539 331.069C200.288 329.869 200.727 328.504 200.819 327.095C200.839 326.431 200.716 325.77 200.459 325.157ZM198.819 331.069C197.483 333.254 195.647 335.096 193.46 336.443C191.473 337.78 189.157 338.553 186.761 338.679C184.281 338.679 182.642 337.487 182.372 335.5C182.33 335.247 182.313 334.991 182.322 334.735C182.408 333.438 182.813 332.183 183.501 331.079C184.839 328.898 186.671 327.058 188.851 325.704C190.84 324.367 193.161 323.597 195.56 323.478C197.559 323.478 199.049 324.253 199.669 325.664C200.289 327.075 200.009 329.012 198.819 331.069Z" fill="#455A64"/>
<path d="M199.669 325.644C199.049 324.234 197.599 323.459 195.56 323.459C193.161 323.577 190.84 324.347 188.851 325.684C186.671 327.038 184.839 328.878 183.502 331.059C182.814 332.163 182.408 333.419 182.322 334.715C182.313 334.971 182.33 335.227 182.372 335.48C182.642 337.467 184.281 338.659 186.761 338.659C189.157 338.533 191.473 337.76 193.46 336.424C195.647 335.076 197.483 333.234 198.819 331.049C200.009 329.012 200.299 327.095 199.669 325.644ZM197.009 331.069C195.14 334.278 191.01 336.901 187.761 336.901C184.551 336.901 183.442 334.278 185.291 331.079C187.141 327.88 191.29 325.257 194.53 325.247C196.75 325.247 197.969 326.479 197.919 328.227C197.854 329.234 197.542 330.21 197.009 331.069Z" fill="#FF1105"/>
<path d="M176.473 322.823C176.43 322.805 176.384 322.796 176.338 322.796C176.291 322.796 176.245 322.805 176.203 322.823C169.864 324.81 155.676 329.678 154.826 331.138C153.976 332.599 162.535 337.427 166.574 339.404C166.668 339.438 166.771 339.438 166.864 339.404C166.981 339.357 167.087 339.286 167.174 339.195C172.113 333.811 175.273 328.376 176.543 323.051V322.992C176.551 322.96 176.549 322.926 176.537 322.895C176.524 322.865 176.502 322.839 176.473 322.823Z" fill="#455A64"/>
<path d="M175.643 323.657C174.383 328.625 171.463 333.592 166.944 338.639C160.815 335.609 155.706 332.092 155.576 331.168C156.776 330.204 166.014 326.638 175.643 323.657Z" fill="#FF1105"/>
<path d="M276.297 322.217C276.182 323.675 275.806 325.102 275.187 326.429C275.137 326.535 275.061 326.627 274.967 326.698C274.873 326.769 274.764 326.816 274.647 326.837C274.437 326.837 274.327 326.737 274.407 326.548C275.727 323.389 275.487 322.088 275.407 321.78C274.887 321.72 272.698 321.472 269.018 321.144C268.663 323.394 267.926 325.567 266.839 327.572C266.783 327.674 266.705 327.762 266.609 327.829C266.514 327.897 266.404 327.941 266.289 327.959C266.079 327.959 265.999 327.83 266.089 327.641C267.828 324.075 268.198 321.988 268.228 320.905C268.24 320.832 268.266 320.762 268.306 320.699C268.345 320.635 268.397 320.581 268.458 320.538C268.574 320.436 268.724 320.38 268.878 320.379C273.498 320.786 275.987 321.084 276.017 321.084C276.047 321.087 276.077 321.096 276.103 321.112C276.128 321.127 276.151 321.148 276.167 321.174C276.291 321.507 276.335 321.864 276.297 322.217Z" fill="#455A64"/>
<path d="M269.998 335.291C269.985 335.374 269.951 335.453 269.898 335.52C266.979 339.493 264.899 340.696 264.799 340.745C264.723 340.792 264.638 340.823 264.549 340.835C264.549 340.835 261.689 341.143 256.55 341.57C256.41 341.57 256.32 341.57 256.31 341.401C256.316 341.33 256.336 341.262 256.371 341.2C256.405 341.138 256.453 341.085 256.51 341.043C258.675 339.054 260.573 336.797 262.159 334.327C262.222 334.23 262.307 334.149 262.408 334.092C262.509 334.034 262.623 334.003 262.739 334C262.919 334 262.969 334.188 262.839 334.387C261.326 336.71 259.563 338.862 257.58 340.805C261.639 340.457 264.119 340.199 264.709 340.139C266.462 338.811 267.988 337.211 269.228 335.4C269.295 335.31 269.382 335.237 269.483 335.187C269.584 335.137 269.695 335.111 269.808 335.112C269.833 335.107 269.859 335.108 269.884 335.115C269.909 335.122 269.931 335.135 269.95 335.153C269.969 335.17 269.983 335.192 269.991 335.216C269.999 335.24 270.002 335.266 269.998 335.291Z" fill="#455A64"/>
<path d="M282.716 349.11L257.21 350.819L254.67 341.182C254.662 341.153 254.646 341.127 254.623 341.108C254.599 341.088 254.571 341.076 254.54 341.073C249.681 339.762 243.832 340.169 237.163 342.275C237.021 342.326 236.894 342.411 236.793 342.524C236.753 342.567 236.725 342.62 236.709 342.677C236.693 342.734 236.691 342.794 236.703 342.851L242.522 358.072C242.535 358.107 242.56 358.138 242.593 358.157C242.626 358.177 242.664 358.185 242.702 358.181L252.701 358.35H252.831L282.476 349.826C282.579 349.795 282.675 349.743 282.756 349.673C282.837 349.603 282.902 349.516 282.946 349.418C282.949 349.385 282.949 349.352 282.946 349.319C282.996 349.18 282.866 349.1 282.716 349.11ZM253.001 357.635L243.242 357.476L237.613 342.742C243.812 340.874 249.271 340.537 253.84 341.749L256.39 351.425C256.39 351.505 256.5 351.554 256.62 351.544L279.527 350.014L253.001 357.635Z" fill="#455A64"/>
<path d="M279.567 350.005L253.001 357.635L243.242 357.476L237.613 342.742C243.812 340.874 249.271 340.537 253.841 341.749L256.39 351.425C256.39 351.505 256.5 351.554 256.62 351.544L279.567 350.005Z" fill="#FF1105"/>
<path d="M304.343 312.044L284.536 303.589H284.426L274.237 303.788C274.126 303.794 274.018 303.832 273.928 303.897L250.441 319.157C250.316 319.235 250.218 319.35 250.161 319.485C250.139 319.53 250.135 319.582 250.15 319.63C250.165 319.677 250.198 319.718 250.241 319.743C254.481 321.829 259.86 322.217 266.239 320.896C266.332 320.871 266.419 320.83 266.499 320.776L280.217 311.12L303.803 312.729C303.909 312.723 304.012 312.695 304.105 312.645C304.199 312.595 304.28 312.525 304.343 312.441C304.402 312.375 304.437 312.291 304.443 312.203C304.445 312.169 304.437 312.135 304.419 312.107C304.401 312.078 304.374 312.056 304.343 312.044ZM280.507 310.384C280.372 310.384 280.241 310.429 280.137 310.514L266.349 320.21C260.35 321.422 255.35 321.104 251.271 319.217L273.998 304.473L283.996 304.284L301.713 311.845L280.507 310.384Z" fill="#455A64"/>
<path d="M301.683 311.845L280.506 310.384C280.372 310.383 280.241 310.429 280.137 310.514L266.349 320.21C260.35 321.422 255.35 321.104 251.271 319.216L273.997 304.473L283.996 304.284L301.683 311.845Z" fill="#FF1105"/>
<path d="M303.383 330.473L278.527 325.644H278.417L241.373 330.612C241.269 330.633 241.17 330.675 241.082 330.735C240.995 330.794 240.92 330.871 240.863 330.959C240.753 331.138 240.803 331.287 240.963 331.317L272.268 336.285H272.388L302.983 331.178C303.087 331.156 303.185 331.113 303.271 331.052C303.357 330.99 303.429 330.911 303.483 330.82C303.512 330.768 303.529 330.711 303.533 330.651C303.536 330.608 303.522 330.566 303.494 330.532C303.466 330.499 303.426 330.478 303.383 330.473ZM272.728 335.579L243.732 330.979L278.087 326.399L301.143 330.85L272.728 335.579Z" fill="#455A64"/>
<path d="M301.103 330.84L272.728 335.569L243.692 330.969L278.047 326.389L301.103 330.84Z" fill="#FF1105"/>
<path d="M271.218 352.399L268.348 353.233L265.449 354.078L262.209 355.012C261.035 355.361 259.956 355.971 259.053 356.795C258.151 357.62 257.449 358.637 257 359.771C256.44 361.757 257.8 362.92 260.11 362.433L263.169 361.787H263.259L266.089 361.191L268.868 360.605C270.378 360.228 271.548 357.883 272.088 355.995C272.285 355.329 272.402 354.642 272.438 353.949C272.488 352.886 272.168 352.16 271.218 352.399ZM271.298 356.174C270.768 358.062 269.768 359.731 269.098 359.9L267.099 360.317L266.149 360.516L264.149 360.933L263.239 361.132L260.29 361.748C258.67 362.085 257.62 361.42 257.65 360.198C257.66 359.982 257.697 359.768 257.76 359.562C258.125 358.637 258.698 357.808 259.434 357.136C260.17 356.465 261.051 355.969 262.009 355.687L265.009 354.803L265.939 354.535L267.938 353.949L268.938 353.661L270.938 353.074C271.708 352.916 271.838 354.306 271.298 356.174Z" fill="#455A64"/>
<path d="M268.998 353.661C268.956 353.562 268.895 353.472 268.818 353.397C268.741 353.322 268.649 353.263 268.548 353.223C268.476 353.204 268.4 353.204 268.328 353.223L265.429 354.068C265.257 354.12 265.109 354.228 265.009 354.376C264.909 354.515 264.909 354.654 265.009 354.714C265.037 354.735 265.061 354.762 265.079 354.793C265.419 355.2 265.379 356.353 264.979 357.774C264.673 359.008 264.092 360.159 263.279 361.142L263.149 361.271C263.089 361.316 263.04 361.375 263.005 361.442C262.971 361.509 262.951 361.583 262.949 361.658C262.961 361.703 262.989 361.742 263.028 361.767C263.066 361.793 263.113 361.804 263.159 361.797H263.249L266.079 361.201C266.158 361.179 266.233 361.142 266.299 361.092C266.594 360.883 266.857 360.632 267.079 360.347C267.873 359.296 268.453 358.101 268.788 356.83C268.992 356.169 269.11 355.484 269.138 354.793C269.177 354.41 269.13 354.023 268.998 353.661ZM267.998 356.999C267.684 358.307 267.045 359.516 266.139 360.516L264.139 360.933C264.864 359.912 265.402 358.772 265.729 357.565C266.072 356.592 266.151 355.547 265.959 354.535L267.958 353.949C268.448 354.227 268.448 355.449 267.998 356.999Z" fill="#455A64"/>
<path d="M267.999 356.999C267.685 358.307 267.045 359.516 266.139 360.516L264.139 360.933C264.864 359.912 265.402 358.772 265.729 357.565C266.072 356.593 266.151 355.547 265.959 354.535L267.959 353.949C268.448 354.227 268.448 355.449 267.999 356.999Z" fill="#FF1105"/>
<path d="M303.243 301.274L301.123 300.698L298.994 300.112L296.604 299.456C294.864 298.979 292.135 300.161 290.405 302.138C288.675 304.116 288.535 306.202 290.105 306.887L292.255 307.811L294.184 308.646L296.094 309.47C296.444 309.59 297.144 309.47 298.484 308.477C299.444 307.694 300.334 306.83 301.143 305.894C301.919 305.03 302.606 304.092 303.193 303.092C303.423 302.717 303.57 302.297 303.623 301.86C303.642 301.733 303.615 301.604 303.545 301.496C303.475 301.388 303.367 301.309 303.243 301.274ZM302.453 303.112C301.913 304.034 301.28 304.9 300.563 305.695C299.819 306.557 298.999 307.352 298.114 308.07C297.434 308.606 296.914 308.864 296.694 308.795L295.354 308.219L294.694 307.931L293.355 307.354L292.745 307.086L290.745 306.212C289.465 305.655 289.565 303.957 290.985 302.337C292.405 300.718 294.624 299.754 296.054 300.152L298.304 300.767L298.974 300.946L300.483 301.354L301.203 301.552L302.693 301.96C302.883 302.039 302.803 302.456 302.453 303.112Z" fill="#455A64"/>
<path d="M301.243 300.807C301.236 300.779 301.221 300.754 301.199 300.735C301.178 300.716 301.152 300.703 301.123 300.698L298.994 300.112C298.835 300.101 298.678 300.147 298.552 300.242C298.425 300.337 298.337 300.474 298.304 300.628C298.304 300.628 298.304 300.708 298.304 300.758C297.79 302.004 297.04 303.141 296.094 304.106C295.149 305.267 294.025 306.272 292.765 307.086L292.595 307.165C292.429 307.23 292.292 307.349 292.205 307.503C292.135 307.642 292.155 307.762 292.265 307.811L294.194 308.646C294.266 308.671 294.343 308.671 294.414 308.646C294.768 308.55 295.105 308.403 295.414 308.209C296.697 307.313 297.857 306.254 298.864 305.059C299.843 304.024 300.643 302.836 301.233 301.542C301.292 301.379 301.325 301.209 301.333 301.036C301.319 300.954 301.289 300.876 301.243 300.807ZM298.244 304.871C297.27 306.104 296.069 307.143 294.704 307.93L293.364 307.354C294.574 306.472 295.674 305.452 296.644 304.314C297.576 303.31 298.354 302.176 298.954 300.946L300.463 301.354C300.493 301.88 299.563 303.341 298.234 304.871H298.244Z" fill="#455A64"/>
<path d="M300.453 301.354C300.453 301.88 299.564 303.341 298.234 304.871C297.26 306.104 296.059 307.143 294.694 307.93L293.354 307.354C294.564 306.472 295.665 305.452 296.634 304.314C297.566 303.31 298.344 302.176 298.944 300.946L300.453 301.354Z" fill="#FF1105"/>
<path d="M315.923 275.56L294.16 300.245C294.021 300.4 293.836 300.508 293.632 300.554C293.428 300.6 293.215 300.581 293.021 300.501C292.828 300.421 292.665 300.283 292.554 300.107C292.444 299.931 292.391 299.724 292.404 299.517L294.568 266.584L315.923 275.56Z" fill="#FFA8A7"/>
<path d="M292.404 299.517C292.391 299.724 292.444 299.93 292.554 300.107C292.665 300.283 292.828 300.421 293.021 300.501C293.215 300.581 293.428 300.6 293.632 300.554C293.836 300.508 294.021 300.4 294.16 300.244L298.406 295.422C297.389 295.526 296.363 295.35 295.441 294.912C294.518 294.474 293.735 293.792 293.178 292.94L292.862 292.469L292.404 299.517Z" fill="#263238"/>
<path d="M347.842 138.653L346.676 141.466L345.253 144.849L294.56 266.576C295.899 270.033 298.504 272.858 301.853 274.485C306.848 277.132 312.834 277.611 315.898 275.552L366.157 154.718L368.855 148.241C366.907 152.336 345.885 142.789 347.842 138.653Z" fill="#FF1105"/>
<path d="M343.338 149.324L340.74 155.603C339.908 157.398 343.338 160.161 347.675 162.403C353.42 165.406 360.779 167.49 361.828 165.116L363.751 160.492L364.409 158.838C363.327 161.212 355.967 159.135 350.214 156.133C346.052 153.973 342.722 151.326 343.238 149.515C343.254 149.444 343.288 149.378 343.338 149.324Z" fill="#EBEBEB"/>
<path d="M342.705 150.888C340.807 155.024 361.911 164.562 363.809 160.401L366.432 154.122C364.534 158.259 343.429 148.779 345.327 144.618L342.705 150.888Z" fill="#FF1105"/>
<path d="M347.842 138.653L345.253 144.849C343.338 148.919 363.66 158.333 366.157 154.718C366.21 154.649 366.255 154.574 366.29 154.495L368.855 148.241C366.907 152.336 345.885 142.789 347.842 138.653Z" fill="#EBEBEB"/>
<path opacity="0.25" d="M366.157 154.718L368.855 148.241C367.956 150.094 363.177 149.151 358.382 147.19L305.891 276.106L294.16 300.244L315.923 275.56L366.157 154.718Z" fill="black"/>
<path d="M358.781 112.38L347.842 138.653C347.009 140.423 350.339 143.178 354.668 145.428C360.404 148.448 367.781 150.59 368.913 148.241L379.478 122.944C382.425 117.253 372.26 110.089 364.958 109.708C362.194 109.526 359.88 110.254 358.781 112.38Z" fill="#FFA8A7"/>
<path d="M368.888 121.05L358.415 147.182C362.686 148.927 366.923 149.862 368.405 148.737C368.513 148.649 368.613 148.552 368.705 148.448C368.755 148.373 368.813 148.315 368.855 148.241L379.719 122.191C378.37 125.318 368.888 121.05 368.888 121.05Z" fill="#F28F8F"/>
<path d="M369 300.35L363.422 302L361 293.934L366.71 292L369 300.35Z" fill="#B16668"/>
<path d="M362.915 299.383L362.672 298.634C362.203 299.008 362.063 303.787 360.741 306.544C359.302 309.54 357.778 311.698 357.136 313.053C356.276 314.866 359.623 315.825 363.321 314.08C365.151 313.211 368.091 310.948 368.56 309.495C369.03 308.042 368.865 306.162 369.272 305.076C369.679 303.99 370.945 302.566 371 301.435C370.813 300.446 370.402 299.508 369.796 298.686C369.241 297.81 368.631 296.836 368.318 297.023C368.318 297.143 368.498 297.615 368.498 297.615C367.955 298.552 367.14 299.317 366.152 299.817C365.268 300.252 363.212 300.319 362.915 299.383Z" fill="#263238"/>
<path d="M360.986 241.999C363.965 244.911 364.248 247.594 362.675 254.913C361.102 262.232 360.163 268.42 360.298 268.835C360.432 269.251 363.937 272.693 364.857 275.546C365.776 278.398 367.374 294.139 367.374 294.139C366.57 294.605 365.576 294.935 364.471 295.104C363.366 295.273 362.181 295.275 361.009 295.112C361.009 295.112 349.955 271.099 349.231 269.323C348.507 267.546 344.688 249.331 344.688 249.331L346.724 239.531L360.986 241.999Z" fill="#37474F"/>
<path d="M343.747 204H348.268C351.113 204 353.842 202.857 355.854 200.823C357.866 198.789 358.998 196.029 359 193.151C359 189.663 357.63 186.318 355.192 183.852C352.754 181.386 349.448 180 346 180C342.552 180 339.246 181.386 336.808 183.852C334.37 186.318 333 189.663 333 193.151C333 194.578 333.278 195.99 333.818 197.308C334.359 198.626 335.151 199.823 336.149 200.831C337.147 201.838 338.332 202.637 339.636 203.181C340.939 203.725 342.336 204.003 343.747 204Z" fill="#263238"/>
<path d="M337.04 297.065L332.093 297L332 303.935L336.947 304L337.04 297.065Z" fill="#B16668"/>
<path d="M333.296 257.25C333.744 253.695 334.82 247.534 334.82 247.534L347.697 247C349.783 249.295 348.874 253.138 348.306 256.565L340.951 276.924C341.098 277.901 342.369 279.969 340.951 285.21C339.367 291.064 337.013 299.454 337.013 299.454C337.013 299.454 333.342 300.757 331.531 299.336C331.531 299.336 330.561 280.309 331.243 275.257C331.972 269.762 332.995 259.686 333.296 257.25Z" fill="#37474F"/>
<path d="M331.802 302.699V302C331.313 302.194 329.898 306.102 328.062 308.05C326.056 310.179 324.206 311.57 323.302 312.528C322.105 313.822 324.621 315.426 328.157 314.896C329.919 314.637 332.972 313.485 333.747 312.411C334.523 311.337 334.904 309.732 335.536 308.943C336.168 308.154 337.576 307.28 337.95 306.355C338.067 305.484 337.978 304.6 337.692 303.766C337.467 302.906 337.223 301.955 336.916 302.032C336.916 302.136 336.916 302.563 336.916 302.563C336.207 303.2 335.319 303.629 334.359 303.799C333.53 303.961 331.796 303.546 331.802 302.699Z" fill="#263238"/>
<path d="M337.729 228.718C337.334 232.274 335 247.717 335 247.717C346.935 253.972 361.74 249.827 364 247.249C361.953 240.606 359.742 236.824 358.057 235.062L360.605 225.3C360.605 225.3 354.851 219.271 359.972 209.776L353.643 209.267L344.354 209C342.135 209.121 340.548 209.331 340.548 209.331C338.851 212.101 338.925 214.531 337.729 217.543C336.808 219.903 337.729 225.3 337.729 228.718Z" fill="#F0F0F0"/>
<path d="M336.973 186C335.573 186.805 333.842 190.219 334.012 197.383C334.158 203.45 336.188 204.949 337.204 205.381C338.219 205.813 340.188 205.553 342.104 205.239V208.885C342.104 208.885 339.458 211.866 339.627 213.529C339.796 215.191 343.473 215.593 345.911 213.961C347.699 212.617 349.239 210.989 350.465 209.146L350.419 200.774C350.419 200.774 351.55 201.833 353.457 200.215C354.996 198.881 355.557 196.637 354.334 195.43C354.016 195.142 353.632 194.933 353.213 194.817C352.795 194.702 352.354 194.685 351.927 194.767C351.501 194.85 351.1 195.029 350.759 195.291C350.418 195.552 350.146 195.889 349.965 196.272C349.965 196.272 346.888 196.376 342.865 194.215C341.285 193.391 339.928 192.218 338.905 190.791C337.881 189.363 337.219 187.722 336.973 186Z" fill="#B16668"/>
<path d="M341.006 195.951C340.991 196.084 341.005 196.218 341.045 196.344C341.086 196.471 341.153 196.588 341.242 196.687C341.331 196.785 341.44 196.864 341.561 196.918C341.683 196.972 341.814 196.999 341.947 196.998C342.144 197.009 342.34 196.961 342.51 196.861C342.681 196.76 342.817 196.61 342.902 196.432C342.988 196.253 343.018 196.053 342.99 195.857C342.962 195.661 342.876 195.478 342.744 195.331C342.611 195.184 342.438 195.079 342.247 195.03C342.055 194.982 341.854 194.992 341.667 195.058C341.481 195.124 341.319 195.245 341.201 195.404C341.083 195.563 341.015 195.753 341.006 195.951Z" fill="#263238"/>
<path d="M340.957 201L339 201.455C339.036 201.55 339.098 201.639 339.182 201.717C339.266 201.794 339.37 201.859 339.489 201.907C339.607 201.955 339.738 201.985 339.873 201.996C340.008 202.006 340.145 201.997 340.275 201.969C340.537 201.901 340.753 201.763 340.88 201.583C341.006 201.403 341.034 201.194 340.957 201Z" fill="#9A4A4D"/>
<path d="M335.18 193L337 192.283C336.923 192.214 336.823 192.154 336.704 192.107C336.586 192.061 336.451 192.028 336.31 192.012C336.169 191.996 336.023 191.996 335.881 192.013C335.74 192.029 335.606 192.062 335.488 192.109C335.246 192.207 335.079 192.354 335.022 192.52C334.965 192.685 335.021 192.857 335.18 193Z" fill="#263238"/>
<path d="M335 195.002C335.001 195.196 335.058 195.386 335.165 195.549C335.271 195.711 335.423 195.839 335.601 195.917C335.779 195.994 335.976 196.018 336.168 195.986C336.359 195.953 336.537 195.866 336.679 195.733C336.822 195.601 336.923 195.43 336.97 195.242C337.017 195.053 337.009 194.855 336.945 194.671C336.881 194.487 336.766 194.326 336.612 194.207C336.459 194.088 336.274 194.016 336.08 194C335.805 193.992 335.537 194.093 335.335 194.28C335.133 194.467 335.013 194.726 335 195.002Z" fill="#263238"/>
<path d="M339 195L338.859 199L336 198.344L339 195Z" fill="#9A4A4D"/>
<path d="M342 204.832C344.075 204.591 348.335 203.494 349 202C348.733 202.764 348.211 203.436 347.503 203.926C346.229 204.903 342 206 342 206V204.832Z" fill="#9A4A4D"/>
<path d="M358.407 195L362 192.807C361.839 192.605 361.63 192.431 361.387 192.297C361.143 192.164 360.869 192.072 360.582 192.029C360.295 191.986 360 191.991 359.716 192.045C359.431 192.099 359.162 192.2 358.926 192.343C358.448 192.646 358.127 193.091 358.03 193.585C357.934 194.08 358.069 194.586 358.407 195Z" fill="#263238"/>
<path d="M348 263L345.997 252.622C344.228 251.976 342.548 251.095 341 250C341.989 251.291 343.169 252.412 344.497 253.324L348 263Z" fill="#263238"/>
<path d="M357.052 203.526C354.301 202.257 354.68 199.885 356.072 197.37C357.464 194.856 359.325 193.167 362.084 194.428C363.359 195.061 364.314 196.122 364.746 197.385C365.179 198.649 365.055 200.016 364.401 201.198C363.748 202.379 362.615 203.283 361.244 203.717C359.872 204.152 358.369 204.083 357.052 203.526Z" fill="#263238"/>
<path d="M321.377 239.626C322.58 239.934 323.747 239.836 325.409 240.395C326.513 240.862 327.717 241.061 328.918 240.975C330.479 240.877 334.554 238.997 338.17 236.852C342.138 234.337 345.633 231.177 348.504 227.507C351.776 222.985 355.4 215.85 357.133 213.124C358.866 210.398 359.46 210 359.46 210C361.723 210.091 363.972 212.097 362.468 217.506C361.222 221.965 357.878 227.745 353.76 232.609C350.631 236.206 346.917 239.275 342.768 241.695C338.943 243.973 335.606 245.105 331.31 246.496C330.15 246.874 329.39 247.433 327.271 248.411C326.417 248.863 325.5 249.19 324.549 249.383C323.362 249.55 322.156 249.55 320.969 249.383C319.46 249.18 318.035 248.584 316.844 247.656C316.192 247.149 315.669 246.501 315.319 245.762C314.972 245.014 314.906 244.17 315.133 243.379C315.174 243.219 315.258 243.072 315.376 242.953C315.5 242.866 315.641 242.804 315.789 242.771C315.938 242.737 316.092 242.733 316.243 242.757C317.977 242.925 319.72 243.007 321.463 243.002C322.895 242.904 323.891 242.638 323.683 242.443C323.475 242.247 322.645 242.359 321.499 241.877C320.353 241.394 319.601 240.332 319.916 239.78C320.231 239.228 320.174 239.319 321.377 239.626Z" fill="#B16668"/>
<path d="M318.617 210.907C320.077 210.253 321.688 210.044 323.259 210.307C324.52 210.523 324.52 214.869 320.465 216.257C317.823 217.149 316.234 216.752 315.382 219C315.382 219 313.667 218.765 314.058 216.257C314.487 213.666 315.612 211.252 317.306 209.291C318.466 207.87 318.567 206.685 319.115 207.075C319.664 207.466 319.462 208.854 319.462 208.854L318.617 210.907Z" fill="#B16668"/>
<path d="M82.4973 156.494C86.9566 161.789 95.0853 171.893 99.2647 177.108C101.482 179.831 102.68 183.233 102.654 186.735C102.654 189.328 101.914 191.494 99.3547 190.391C97.515 189.587 96.3551 188.643 93.6456 186C91.2259 183.626 82.6473 173.383 82.6473 173.383C82.6473 173.383 76.0683 156.186 72.4489 155.093C70.4743 154.446 68.396 154.17 66.3198 154.278C70.6891 152.778 76.8382 149.798 82.4973 156.494Z" fill="#F28F8F"/>
<path d="M64.1602 150.841C68.6295 147.503 76.1583 148.367 80.3776 153.394C83.4472 157.08 90.736 166.071 90.736 166.071C89.8465 168.04 88.5513 169.802 86.9342 171.242C85.3171 172.683 83.4139 173.771 81.3475 174.436L64.1602 150.841Z" fill="#E0E0E0"/>
<path d="M149.697 269.463C149.697 269.463 137.139 224.23 119.432 181.589C101.864 139.356 74.7785 96.5071 70.2492 90.0395L70.1892 89.9601L70.1193 89.8607C69.6868 89.2901 69.0848 88.8689 68.3983 88.6567C67.7118 88.4445 66.9755 88.4521 66.2936 88.6783C65.6117 88.9046 65.0185 89.338 64.598 89.9174C64.1775 90.4969 63.9509 91.1929 63.9502 91.9073C63.9493 92.1682 63.9796 92.4283 64.0402 92.6822C64.0402 92.6822 76.0383 151.179 93.3656 192.716C110.693 234.254 134.359 275.821 134.359 275.821C134.744 276.368 135.249 276.819 135.837 277.141C136.424 277.463 137.078 277.647 137.749 277.679C139.799 277.833 141.858 277.506 143.758 276.725C145.658 275.943 147.346 274.728 148.687 273.179C149.13 272.677 149.451 272.081 149.626 271.437C149.801 270.793 149.825 270.118 149.697 269.463Z" fill="#FF1105"/>
<path opacity="0.25" d="M63.9402 91.947C63.9393 92.2079 63.9695 92.468 64.0302 92.7219C64.0302 92.7219 76.0283 151.218 93.3556 192.756C104.984 220.703 119.492 248.649 127.75 263.959L136.809 258.256C136.809 258.256 64.6901 89.8209 67.3797 88.5393C66.9285 88.538 66.4814 88.6252 66.0642 88.7959C65.647 88.9665 65.2677 89.2173 64.9482 89.5339C64.6287 89.8504 64.3752 90.2265 64.2022 90.6406C64.0292 91.0547 63.9402 91.4986 63.9402 91.947Z" fill="black"/>
<path d="M134.309 275.861C132.849 283.163 130.31 292.542 134.929 304.722C140.138 318.551 155.926 322.366 163.505 322.376C174.073 322.376 180.762 318.481 180.762 318.481C180.762 318.481 175.293 316.395 173.033 308.547C172.584 306.836 172.31 305.086 172.213 303.321C171.723 296.963 171.513 290.038 165.924 282.358C161.872 276.602 156.244 272.12 149.707 269.443L134.309 275.861Z" fill="#EBEBEB"/>
<path d="M173.013 308.547C172.564 306.836 172.29 305.086 172.193 303.321C172.193 303.37 170.284 311.606 165.614 311.12C160.945 310.633 159.615 305.695 153.406 305.695C145.857 305.695 143.258 311.994 136.789 308.596C143.268 319.415 156.616 322.366 163.485 322.376C174.053 322.376 180.742 318.481 180.742 318.481C180.742 318.481 175.293 316.395 173.013 308.547Z" fill="#FF1105"/>
<path opacity="0.25" d="M153.296 311.199C141.078 302.784 143.378 280.401 143.738 276.755L134.309 275.861C132.849 283.163 130.31 292.542 134.929 304.722C140.138 318.551 155.926 322.366 163.505 322.376C174.073 322.376 180.762 318.481 180.762 318.481C180.762 318.481 167.604 321.064 153.296 311.199Z" fill="black"/>
<path d="M134.309 275.861C134.694 276.407 135.199 276.859 135.787 277.181C136.374 277.503 137.028 277.687 137.699 277.719C139.749 277.873 141.808 277.546 143.708 276.764C145.608 275.983 147.296 274.768 148.637 273.218C149.095 272.717 149.43 272.117 149.616 271.465C149.802 270.814 149.833 270.128 149.707 269.463C147.927 263.184 145.877 256.379 143.648 249.226C144.088 250.616 143.648 252.325 142.338 254.074C140.649 256.033 138.518 257.569 136.118 258.557C133.719 259.544 131.119 259.955 128.53 259.757C126.27 259.468 124.751 258.495 124.101 257.164C128.02 264.446 131.68 271.251 134.309 275.861Z" fill="#455A64"/>
<path d="M136.809 258.256C134.239 259.499 131.376 260.018 128.53 259.757C126.27 259.468 124.751 258.495 124.101 257.164C128 264.446 131.68 271.251 134.309 275.861C134.694 276.407 135.199 276.859 135.787 277.181C136.374 277.503 137.028 277.687 137.699 277.719C139.751 277.897 141.815 277.555 143.698 276.725L143.808 276.537L136.809 258.227V258.256Z" fill="#37474F"/>
<path d="M72.9606 135.073C78.7918 133.705 82.4031 127.9 81.0269 122.106C79.6506 116.312 73.8078 112.723 67.9767 114.091C62.1455 115.458 58.5341 121.264 59.9104 127.058C61.2867 132.852 67.1295 136.441 72.9606 135.073Z" fill="#263238"/>
<path d="M44.513 319.902H52.1519V306.907H44.513V319.902Z" fill="#FFA8A7"/>
<path d="M70.989 306.212L78.6278 306.47L79.0078 292.72L71.369 292.462L70.989 306.212Z" fill="#FFA8A7"/>
<path d="M45.033 203.903C45.033 211.155 44.0332 255.077 44.0332 255.077C43.8532 257.164 41.8935 261.038 42.3135 268.986C42.8934 279.865 43.8432 308.159 43.8432 308.159C43.8432 308.159 47.4227 311.686 52.4819 308.159C52.4819 308.159 59.4008 269.026 60.7606 258.236C62.0304 248.858 64.0301 223.316 64.0301 223.316L71.109 253.408C71.109 253.408 69.8592 260.482 69.5892 265.469C69.3193 270.456 70.879 296.605 70.879 296.605C72.1177 297.374 73.5375 297.807 74.997 297.861C76.4566 297.915 77.9049 297.588 79.1977 296.913C79.1977 296.913 85.3268 257.481 86.1166 252.971C86.9065 248.461 80.7475 203.923 80.7475 203.923L45.033 203.903Z" fill="#37474F"/>
<path d="M52.3518 151.477C50.7237 151.759 49.2165 152.515 48.0206 153.648C46.8246 154.782 45.9937 156.242 45.6329 157.845C45.2178 159.738 45.01 161.67 45.013 163.607V203.903C50.3621 209.695 69.0092 212.387 80.7374 203.903C80.7374 203.903 80.5074 168.316 79.6276 162.465C78.1078 152.301 73.2186 148.685 68.2993 149.063L56.5112 150.791L52.3518 151.477Z" fill="#F0F0F0"/>
<path d="M51.7319 132.233C51.7319 132.233 53.4917 140.439 54.1916 141.79C54.665 142.618 55.4369 143.235 56.3512 143.519L56.2312 137.747L51.7319 132.233Z" fill="#263238"/>
<path d="M53.9417 120.48C53.3266 120.41 52.7035 120.48 52.1197 120.685C51.5359 120.89 51.0067 121.224 50.5722 121.662C49.1224 123.133 49.9323 127.732 51.732 132.233L55.0415 132.61L53.9417 120.48Z" fill="#263238"/>
<path d="M56.0312 132.62C55.3713 133.008 54.4215 131.746 53.6016 130.892C52.7817 130.037 50.1121 128.905 48.7824 131.667C47.4526 134.428 49.9622 138.273 52.0618 138.929C55.6913 140.062 56.2312 137.747 56.2312 137.747L56.5112 150.791C57.3112 152.534 58.5337 154.052 60.0692 155.211C61.6047 156.369 63.4053 157.131 65.3098 157.428C71.7388 158.292 70.419 153.027 68.3093 150.473V146.499C69.9254 146.756 71.5642 146.843 73.1986 146.758C75.8681 146.34 77.5479 144.254 78.3478 141.383C79.6476 136.783 80.1475 133.057 79.0377 124.007C77.8378 114.072 66.2096 113.973 59.9406 117.897C53.6716 121.821 56.0312 132.62 56.0312 132.62Z" fill="#FFA8A7"/>
<path d="M56.0314 133.723C55.7014 133.723 54.4316 131.637 53.6017 130.892C52.4619 129.898 53.9417 120.48 53.9417 120.48C53.6387 119.67 53.5814 118.789 53.7769 117.947C53.9724 117.104 54.412 116.338 55.0415 115.741C56.6113 114.032 59.2309 113.834 63.7102 113.138C66.0498 112.771 69.6093 112.145 71.9589 111.688C74.7585 111.171 77.0781 110.625 79.0478 112.333C79.8197 113.003 80.366 113.891 80.6128 114.879C80.8595 115.867 80.7949 116.907 80.4276 117.857C80.2223 118.289 79.9526 118.688 79.6277 119.039C79.0959 119.665 78.4055 120.138 77.628 120.41C77.628 120.41 76.4082 121.493 72.1589 122C68.2379 122.293 64.2979 122.219 60.3907 121.781C59.1609 121.613 58.9009 122.775 58.231 126.043C57.6411 128.934 57.1512 133.703 56.0314 133.723Z" fill="#263238"/>
<path d="M53.9418 121.215L49.9424 119.069C50.071 118.806 50.2513 118.571 50.4727 118.378C50.6941 118.185 50.9521 118.037 51.2316 117.945C51.5111 117.852 51.8063 117.816 52.1001 117.839C52.3938 117.861 52.68 117.942 52.9419 118.076C53.4829 118.371 53.8886 118.862 54.0748 119.446C54.261 120.031 54.2134 120.664 53.9418 121.215Z" fill="#263238"/>
<path d="M68.2894 146.44C68.2894 146.44 62.2904 145.257 60.2907 144.155C59.0662 143.52 58.0627 142.533 57.4111 141.323C57.7194 142.533 58.2703 143.668 59.0309 144.661C60.5506 146.599 68.2994 148.019 68.2994 148.019L68.2894 146.44Z" fill="#F28F8F"/>
<path d="M66.8597 131.14C66.8538 131.373 66.7791 131.598 66.6448 131.789C66.5105 131.979 66.3227 132.126 66.1048 132.211C65.887 132.296 65.6487 132.315 65.4199 132.266C65.1912 132.217 64.982 132.102 64.8185 131.936C64.6551 131.769 64.5448 131.559 64.5012 131.33C64.4577 131.102 64.483 130.865 64.5738 130.651C64.6647 130.437 64.8171 130.254 65.0121 130.125C65.2071 129.997 65.4359 129.928 65.6699 129.928C65.8283 129.929 65.9849 129.962 66.1306 130.023C66.2764 130.085 66.4083 130.175 66.519 130.288C66.6296 130.4 66.7166 130.534 66.7751 130.68C66.8336 130.826 66.8624 130.983 66.8597 131.14Z" fill="#263238"/>
<path d="M65.6 126.669L63.0304 128.06C62.8576 127.716 62.8224 127.32 62.9319 126.951C63.0414 126.583 63.2873 126.269 63.6203 126.073C63.7883 125.977 63.9743 125.916 64.1668 125.895C64.3593 125.873 64.5543 125.89 64.7398 125.946C64.9253 126.002 65.0972 126.095 65.2452 126.219C65.3931 126.344 65.5139 126.497 65.6 126.669Z" fill="#263238"/>
<path d="M67.7495 139.326L70.4791 140.32C70.4196 140.501 70.3239 140.669 70.1979 140.813C70.0718 140.956 69.9178 141.073 69.7452 141.157C69.5726 141.24 69.3848 141.288 69.1931 141.298C69.0014 141.308 68.8097 141.279 68.6294 141.214C68.2672 141.071 67.9739 140.796 67.8102 140.445C67.6464 140.093 67.6247 139.693 67.7495 139.326Z" fill="#F28F8F"/>
<path d="M77.4981 127.653L75.1685 125.875C75.2776 125.722 75.4165 125.592 75.577 125.493C75.7375 125.395 75.9163 125.329 76.1027 125.3C76.2892 125.271 76.4796 125.28 76.6626 125.326C76.8456 125.372 77.0175 125.454 77.1681 125.567C77.4824 125.806 77.6921 126.156 77.7535 126.544C77.8149 126.933 77.7235 127.33 77.4981 127.653Z" fill="#263238"/>
<path d="M76.778 130.802C76.7682 131.034 76.6902 131.257 76.5536 131.445C76.4171 131.633 76.228 131.777 76.0099 131.858C75.7918 131.94 75.5543 131.957 75.3269 131.906C75.0995 131.855 74.8922 131.738 74.7308 131.571C74.5693 131.404 74.4609 131.193 74.4189 130.966C74.3769 130.738 74.4032 130.503 74.4945 130.289C74.5859 130.076 74.7382 129.894 74.9326 129.767C75.1271 129.639 75.355 129.571 75.5882 129.57C75.7483 129.572 75.9066 129.605 76.0537 129.668C76.2007 129.731 76.3336 129.822 76.4445 129.937C76.5554 130.052 76.642 130.188 76.6993 130.336C76.7566 130.485 76.7833 130.643 76.778 130.802Z" fill="#263238"/>
<path d="M70.699 129.68L71.0989 136.803L74.8383 135.531L70.699 129.68Z" fill="#F28F8F"/>
<path d="M52.142 316.147V315.064C52.8819 315.382 54.5717 321.82 57.6112 324.562C60.0208 326.747 63.3003 329.271 64.1402 331.705C64.98 334.139 59.5609 335.679 57.3112 335.242C54.6917 334.775 50.1624 332.947 49.0225 331.268C47.8827 329.589 47.3528 327.075 46.4329 325.833C45.5131 324.591 43.3734 323.2 42.8735 321.76C42.5935 320.965 42.8735 319.236 43.3134 317.786C43.7534 316.335 44.0433 314.964 44.5032 315.094C44.5032 315.253 44.5032 315.918 44.5032 315.918C45.5895 316.77 46.9388 317.223 48.3226 317.2C49.4425 317.22 52.152 316.991 52.142 316.147Z" fill="#263238"/>
<path d="M78.7077 304.126C79.1076 304.126 79.4276 304.702 80.2974 305.636C81.6067 306.95 83.1273 308.038 84.7967 308.855C87.6563 310.275 93.2154 312.461 95.735 313.594C97.3048 314.289 97.2348 316.177 95.6051 317.259C93.9753 318.342 90.0559 319.097 85.3466 318.054C82.7771 317.488 79.4376 315.133 77.3479 315.253C75.2582 315.372 71.2688 315.352 69.7091 314.259C68.1493 313.166 68.7692 310.901 69.2192 308.944C69.6991 306.798 70.389 303.52 71.0989 303.669V304.344C72.0187 305.725 76.688 306.331 78.7077 305.268V304.126Z" fill="#263238"/>
<path d="M64.03 223.316C67.9762 222.092 71.6042 220.023 74.6584 217.255C74.6584 217.255 72.6087 221.07 66.5096 224.627L68.7993 244.03L64.03 223.316Z" fill="#263238"/>
<path d="M106.773 194.981C105.094 195.409 103.474 195.269 101.154 196.064C99.6103 196.734 97.9248 197.017 96.2451 196.889C94.0755 196.76 88.3764 194.077 83.3271 191.037C77.8035 187.454 72.9374 182.958 68.9394 177.744C64.3701 171.317 59.3109 161.183 56.9413 157.308C54.5716 153.434 52.232 153.017 49.5424 153.136C46.3829 153.265 44.3632 156.116 47.1428 162.077C51.1115 170.207 55.9809 177.871 61.6605 184.927C66.0248 190.04 71.2067 194.403 76.9981 197.843C82.3373 201.091 86.9966 202.691 92.9956 204.668C94.6154 205.204 95.6852 205.999 98.6448 207.39C99.8327 208.035 101.109 208.504 102.434 208.781C104.092 209.023 105.776 209.023 107.433 208.781C109.539 208.496 111.529 207.652 113.192 206.337C114.109 205.615 114.842 204.689 115.332 203.635C115.814 202.57 115.902 201.37 115.582 200.247C115.525 200.021 115.412 199.812 115.252 199.641C114.899 199.398 114.467 199.298 114.042 199.363C111.617 199.605 109.181 199.725 106.743 199.72C104.744 199.571 103.364 199.204 103.644 198.925C103.924 198.647 105.104 198.806 106.703 198.121C108.303 197.435 109.343 195.915 108.913 195.14C108.483 194.365 108.453 194.554 106.773 194.981Z" fill="#FFA8A7"/>
<path d="M50.5222 152.023C48.0926 152.142 44.9531 153.613 45.0131 157.736C45.073 161.859 51.442 173.83 56.3513 180.665C56.3513 180.665 64.0201 180.178 68.0395 174.436C68.0395 174.436 60.8806 163.12 58.9409 159.534C57.1912 156.265 54.0316 151.844 50.5222 152.023Z" fill="#E0E0E0"/>
<path d="M114.022 169.151C111.814 168.224 109.383 167.955 107.023 168.376C105.024 168.704 105.024 175.33 111.453 177.446C115.642 178.807 118.162 178.211 119.512 181.629C119.512 181.629 122.221 181.271 121.611 177.446C120.939 173.502 119.169 169.823 116.502 166.826C114.652 164.66 114.502 162.852 113.622 163.458C112.743 164.064 112.753 166.289 112.753 166.289L114.022 169.151Z" fill="#FFA8A7"/>
<path d="M289.595 196.67L252.901 196.173L252.581 225.978C252.581 228.67 254.31 231.382 257.87 233.479C264.999 237.671 276.617 237.79 283.866 233.757C287.505 231.72 289.325 229.018 289.315 226.296L289.595 196.67Z" fill="#37474F"/>
<path d="M258.36 188.792C251.151 192.835 251.081 199.502 258.2 203.694C265.319 207.887 276.937 208.006 284.146 203.972C291.355 199.939 291.435 193.272 284.316 189.07C277.197 184.868 265.569 184.758 258.36 188.792Z" fill="#455A64"/>
<path d="M287.995 196.551C287.986 197.039 287.899 197.522 287.735 197.981C287.185 199.69 285.685 201.27 283.346 202.581C279.547 204.429 275.366 205.369 271.137 205.324C266.908 205.279 262.748 204.251 258.99 202.323C256.73 200.992 255.25 199.343 254.73 197.723C254.555 197.232 254.467 196.714 254.47 196.193C254.47 193.978 256.15 191.832 259.13 190.232C262.93 188.391 267.11 187.456 271.338 187.501C275.566 187.545 279.726 188.569 283.486 190.491C286.445 192.17 287.995 194.325 287.995 196.551Z" fill="#263238"/>
<path d="M287.755 197.982C287.205 199.69 285.705 201.27 283.366 202.581C279.567 204.429 275.386 205.369 271.157 205.324C266.928 205.279 262.768 204.251 259.01 202.323C256.75 200.992 255.27 199.343 254.75 197.723C255.585 195.701 257.156 194.066 259.15 193.143C262.945 191.283 267.127 190.337 271.359 190.382C275.59 190.427 279.752 191.461 283.506 193.402C285.436 194.363 286.947 195.992 287.755 197.982Z" fill="#FF1105"/>
<path d="M279.067 207.827C279.876 207.38 280.516 207.757 280.506 208.671C280.474 209.171 280.324 209.656 280.069 210.087C279.814 210.518 279.46 210.884 279.037 211.155C278.227 211.602 277.587 211.225 277.597 210.311C277.629 209.811 277.779 209.327 278.034 208.895C278.29 208.464 278.643 208.098 279.067 207.827Z" fill="#263238"/>
<path d="M252.841 201.459C250.841 205.433 246.842 214.811 252.021 218.646C252.241 218.805 252.441 218.944 252.661 219.083V220.981C252.141 220.673 251.601 220.315 251.081 219.938C243.292 214.195 252.081 199.482 252.461 198.866C252.558 198.701 252.715 198.579 252.901 198.528L252.841 201.459Z" fill="#E0E0E0"/>
<path d="M279.756 209.864C279.536 210.321 273.867 221.09 264.539 223.256C263.485 223.509 262.404 223.635 261.319 223.633C258.226 223.576 255.214 222.638 252.641 220.931V219.033C256.49 221.686 260.369 222.6 264.159 221.726C272.767 219.739 278.277 209.228 278.317 209.128C278.365 209.036 278.432 208.954 278.512 208.886C278.593 208.819 278.686 208.768 278.786 208.737C278.886 208.706 278.992 208.694 279.097 208.704C279.201 208.713 279.303 208.742 279.396 208.791C279.493 208.835 279.58 208.899 279.651 208.978C279.723 209.056 279.777 209.149 279.81 209.25C279.844 209.35 279.857 209.457 279.847 209.562C279.838 209.668 279.807 209.77 279.756 209.864Z" fill="#E0E0E0"/>
<path d="M232.274 137.399H148.287L157.676 214.175C158.106 218.626 161.235 222.997 167.154 226.395C179.922 233.717 200.609 233.717 213.367 226.395C219.286 222.997 222.426 218.626 222.855 214.175L232.274 137.399Z" fill="#37474F"/>
<path d="M160.625 120.351C177.033 110.942 203.619 110.942 220.036 120.351C236.453 129.759 236.443 145.029 220.036 154.437C203.629 163.845 177.043 163.845 160.625 154.437C144.208 145.029 144.218 129.769 160.625 120.351Z" fill="#455A64"/>
<path d="M190.331 156.653C179.952 156.653 170.264 154.377 163.065 150.245C156.696 146.589 153.196 142.028 153.196 137.389C153.196 132.749 156.696 128.199 163.065 124.543C170.264 120.41 179.952 118.135 190.331 118.135C200.709 118.135 210.397 120.41 217.596 124.543C223.965 128.199 227.465 132.759 227.465 137.389C227.465 142.018 223.965 146.589 217.596 150.235C210.397 154.377 200.709 156.653 190.331 156.653Z" fill="#263238"/>
<path d="M213.587 200.465L198.089 229.773C197.996 229.965 197.842 230.122 197.652 230.22C197.462 230.318 197.245 230.354 197.033 230.32C196.822 230.287 196.626 230.187 196.476 230.034C196.326 229.882 196.229 229.686 196.2 229.475L190.521 196.69L213.587 200.465Z" fill="#FFA8A7"/>
<path d="M213.587 200.465L198.089 229.773C197.996 229.965 197.842 230.122 197.652 230.22C197.462 230.318 197.245 230.354 197.033 230.32C196.822 230.287 196.626 230.187 196.476 230.034C196.326 229.882 196.229 229.686 196.2 229.475L190.521 196.69L213.587 200.465Z" fill="#FFA8A7"/>
<path d="M196.2 229.445C196.229 229.656 196.326 229.852 196.476 230.005C196.626 230.157 196.821 230.257 197.033 230.29C197.245 230.324 197.462 230.289 197.652 230.19C197.842 230.092 197.995 229.935 198.089 229.743L201.089 224.021C200.116 224.361 199.068 224.429 198.059 224.217C197.051 224.005 196.12 223.521 195.37 222.819L194.95 222.421L196.2 229.445Z" fill="#263238"/>
<path d="M212.407 58.6653L211.937 61.6457L211.337 65.2918L190.51 196.621C192.634 199.694 195.848 201.855 199.509 202.671C205.008 204.111 211.017 203.168 213.507 200.426L234.244 70.1202L235.354 63.1658C234.384 67.6166 211.497 63.1757 212.407 58.6653Z" fill="#FF1105"/>
<path d="M210.547 70.1798L209.488 76.9454C209.118 78.9324 213.117 80.8101 217.906 82.0023C224.245 83.5919 231.964 83.9197 232.464 81.3366L233.254 76.3692L233.504 74.5809C233.004 77.164 225.285 76.8461 218.946 75.2565C214.357 74.1041 210.477 72.2761 210.527 70.4182C210.506 70.3389 210.513 70.2544 210.547 70.1798Z" fill="#EBEBEB"/>
<path d="M210.297 71.8787C209.417 76.399 232.384 80.82 233.294 76.2599L234.374 69.4943C233.504 74.0147 210.537 69.6334 211.377 65.113L210.297 71.8787Z" fill="#FF1105"/>
<path d="M212.407 58.6653L211.337 65.3514C210.447 69.7923 232.574 74.2928 234.244 70.1301C234.282 70.0515 234.309 69.9679 234.324 69.8817L235.323 63.1459C234.384 67.6166 211.497 63.1757 212.407 58.6653Z" fill="#EBEBEB"/>
<path opacity="0.25" d="M234.244 70.1202L235.354 63.1658C234.914 65.1527 229.994 65.3912 224.825 64.5865L203.878 203.317L198.089 229.743L213.587 200.436L234.244 70.1202Z" fill="black"/>
<path d="M216.936 30.3212L212.407 58.6653C212.017 60.5927 215.977 62.5101 220.716 63.7122C227.055 65.3316 234.804 65.6992 235.354 63.136L239.703 35.8748C241.243 29.596 229.575 24.9465 222.306 26.2479C219.596 26.6851 217.516 27.9766 216.936 30.3212Z" fill="#FFA8A7"/>
<path d="M163.555 194.008L163.135 190.968L162.605 187.312L144.068 55.6849C145.787 57.4433 150.237 58.3772 155.066 57.8606C160.715 57.2546 165.924 54.9497 167.164 52.2772L185.561 182.93L186.561 189.934C185.681 185.434 162.725 189.477 163.555 194.008Z" fill="#FF1105"/>
<path d="M161.895 182.453L160.955 175.678C160.615 173.691 164.654 171.873 169.454 170.77C175.833 169.28 183.552 169.091 184.001 171.684L184.711 176.651L184.931 178.44C184.471 175.847 176.753 176.035 170.374 177.516C165.774 178.589 161.865 180.347 161.885 182.205C161.862 182.287 161.866 182.374 161.895 182.453Z" fill="#EBEBEB"/>
<path d="M161.675 180.765C160.875 176.214 183.911 172.23 184.671 176.791L185.671 183.576C184.871 179.036 161.835 183.02 162.675 187.55L161.675 180.765Z" fill="#27DEBF"/>
<path d="M163.555 194.008L162.605 187.312C161.785 182.851 183.991 178.787 185.601 182.93C185.632 183.011 185.655 183.094 185.671 183.179L186.581 189.934C185.681 185.434 162.725 189.477 163.555 194.008Z" fill="#EBEBEB"/>
<path d="M153.536 29.7947C150.177 30.659 148.987 29.9636 148.987 29.9636L144.078 55.6849C146.757 59.5098 153.286 60.3046 158.815 58.6653L158.645 57.4036L153.536 29.7947Z" fill="#FFA8A7"/>
<path d="M167.204 52.2772L155.156 28.4336L167.204 52.2772Z" fill="#FAFAFA"/>
<path d="M155.146 28.4733L152.226 22.7012L155.146 28.4733Z" fill="#E0E0E0"/>
<path d="M150.327 22.9694L148.987 29.9238C148.987 29.9238 150.127 30.7285 153.536 29.7549L152.226 22.6614C152.169 22.5438 152.088 22.4387 151.99 22.352C151.891 22.2654 151.776 22.1989 151.652 22.1565C151.527 22.114 151.396 22.0964 151.264 22.1046C151.133 22.1128 151.005 22.1468 150.887 22.2044C150.737 22.2756 150.607 22.3829 150.509 22.5164C150.411 22.65 150.349 22.8057 150.327 22.9694Z" fill="#455A64"/>
<path opacity="0.25" d="M185.591 182.93L167.194 52.307C165.894 55.4166 162.585 57.6221 158.815 58.705L176.073 188.325C181.262 187.61 186.171 187.898 186.571 189.934L185.591 182.93Z" fill="black"/>
<path d="M167.194 52.307L155.136 28.4634C154.772 29.0778 154.202 29.5454 153.526 29.7847L158.645 57.4036L158.815 58.6852C162.585 57.6221 165.894 55.4166 167.194 52.307Z" fill="#F28F8F"/>
<path d="M153.536 29.7946C153.888 29.7098 154.215 29.5468 154.494 29.3179C154.773 29.089 154.996 28.8002 155.146 28.4733L152.226 22.7012L153.536 29.7946Z" fill="#37474F"/>
<path d="M167.584 222.421L163.585 194.008C163.235 192.07 167.214 190.223 171.973 189.1C178.352 187.59 186.101 187.351 186.601 189.934L190.48 217.275C191.91 223.574 180.162 228.015 172.923 226.594C170.184 226.097 168.124 224.776 167.584 222.421Z" fill="#F28F8F"/>
<path d="M182.872 43.8027C182.872 43.8027 178.402 79.4291 178.362 114.708C178.362 149.678 184.831 187.858 186.131 193.749C186.131 193.749 186.131 193.749 186.131 193.819C186.136 193.852 186.136 193.885 186.131 193.918C186.263 194.457 186.564 194.94 186.99 195.298C187.416 195.656 187.946 195.869 188.503 195.908C189.059 195.947 189.614 195.809 190.086 195.513C190.559 195.218 190.924 194.781 191.13 194.266C191.208 194.081 191.262 193.888 191.29 193.69C191.29 193.69 200.009 148.804 200.079 114.43C200.149 80.055 195.64 43.763 195.64 43.763C195.521 43.2736 195.293 42.8169 194.972 42.4267C194.652 42.0364 194.248 41.7224 193.79 41.5078C192.387 40.7992 190.835 40.4299 189.261 40.4299C187.687 40.4299 186.135 40.7992 184.731 41.5078C184.264 41.7209 183.852 42.0391 183.529 42.4374C183.206 42.8357 182.981 43.3031 182.872 43.8027Z" fill="#FF1105"/>
<path opacity="0.25" d="M191.14 194.266C191.218 194.081 191.272 193.888 191.3 193.69C191.3 193.69 200.009 148.804 200.079 114.43C200.079 91.2913 198.079 67.3086 196.76 54.0853L188.681 55.4762C188.681 55.4762 189.981 195.558 187.681 195.677C188.001 195.812 188.345 195.882 188.693 195.885C189.041 195.887 189.385 195.82 189.707 195.689C190.029 195.558 190.321 195.364 190.567 195.12C190.813 194.876 191.008 194.586 191.14 194.266Z" fill="black"/>
<path d="M189.241 40.3852C190.361 38.2989 196.47 27.0328 194.5 17.853C193.27 17.8198 192.057 17.5639 190.92 17.0979C186.531 15.2898 187.051 11.4152 183.922 9.70642C180.792 7.99762 177.003 13.2631 176.973 13.3128C175.443 17.9424 173.543 22.8999 175.233 29.9636C176.407 35.2066 179.068 40.0056 182.902 43.7929H195.67C196.47 42.6106 197.349 41.3489 198.219 39.9779C197.349 41.3489 196.47 42.6106 195.67 43.7929L189.241 40.3852Z" fill="#F0F0F0"/>
<path opacity="0.1" d="M203.529 19.8797C200.809 16.631 198.019 17.9722 194.53 17.8927C196.53 27.0725 190.391 38.3386 189.271 40.4249L195.67 43.7928C196.47 42.6106 197.349 41.3489 198.219 39.9779C198.439 39.6401 198.659 39.2824 198.879 38.9248C199.319 38.2095 199.749 37.4544 200.159 36.6696C200.815 35.4328 201.389 34.1552 201.879 32.8446C202.209 31.9306 202.519 30.9769 202.779 29.9635C203.364 27.759 203.699 25.4964 203.778 23.2178C203.795 22.0999 203.711 20.9828 203.529 19.8797Z" fill="black"/>
<path d="M203.518 19.83C203.428 19.2637 203.318 18.7173 203.188 18.1709V18.0119C203.078 17.6046 202.958 17.1972 202.828 16.8098L202.679 16.3528C202.679 16.2336 202.579 16.1143 202.539 15.9951L202.289 15.3692C202.179 15.1109 202.069 14.8626 201.949 14.6241C201.668 14.0631 201.354 13.519 201.009 12.9948C200.699 12.4683 200.369 12.0013 200.009 11.4648C199.649 10.9284 199.299 10.4714 198.919 10.0442C196.555 7.23495 193.665 4.90711 190.41 3.18911L189.701 2.83146L189.501 2.73211L188.681 2.37445C186.986 1.66854 185.233 1.11009 183.441 0.705401C182.642 0.526573 181.882 0.397418 181.172 0.288135C180.462 0.178852 179.802 0.119244 179.172 0.0795041L178.312 0.0198975H177.552H176.333C175.663 0.0198975 175.333 0.0993743 175.333 0.0993743C175.333 0.0993743 178.592 3.16924 177.872 9.36859C177.675 10.7233 177.34 12.0547 176.873 13.3425C176.873 13.3425 180.672 8.03732 183.821 9.73618C186.971 11.435 186.461 15.3196 190.82 17.1277C191.957 17.5937 193.17 17.8495 194.4 17.8828C197.919 18.002 200.709 16.6608 203.398 19.8697L203.518 19.83Z" fill="#FF1105"/>
<path opacity="0.25" d="M175.363 0.0993743C175.363 0.0993743 185.431 2.08634 192.64 13.2432C193.537 14.6544 194.168 16.2166 194.5 17.8529C198.019 17.9722 200.809 16.631 203.498 19.8399C203.408 19.2736 203.298 18.7272 203.168 18.1808V18.0218C203.058 17.6145 202.938 17.2072 202.808 16.8197L202.659 16.3627C202.659 16.2435 202.559 16.1243 202.519 16.0051L202.269 15.3792C202.159 15.1209 202.049 14.8725 201.929 14.6341C201.651 14.0722 201.344 13.5251 201.009 12.9948C200.699 12.4683 200.369 12.0013 200.009 11.4648C199.649 10.9284 199.299 10.4714 198.919 10.0442C196.555 7.23495 193.665 4.90711 190.41 3.18911L189.701 2.83146L189.501 2.73211L188.681 2.37446C186.986 1.66854 185.233 1.11009 183.441 0.705401C182.642 0.526573 181.882 0.397418 181.172 0.288135C180.462 0.178852 179.802 0.119244 179.172 0.0795041L178.312 0.0198975H177.552H176.333C175.663 0.0198975 175.333 0.0993743 175.333 0.0993743H175.363Z" fill="#0C0C0C"/>
<path d="M195.64 43.753C195.519 43.2657 195.29 42.8114 194.97 42.423C194.65 42.0346 194.247 41.7219 193.79 41.5078C192.387 40.7992 190.835 40.4299 189.261 40.4299C187.687 40.4299 186.135 40.7992 184.731 41.5078C184.258 41.7234 183.843 42.0474 183.519 42.4532C183.196 42.859 182.974 43.3351 182.872 43.8424C182.272 48.8099 181.712 54.2144 181.172 59.917C181.288 59.2572 181.564 58.6352 181.975 58.1041C182.386 57.5731 182.92 57.1486 183.532 56.867C185.304 55.9734 187.263 55.5076 189.251 55.5076C191.238 55.5076 193.197 55.9734 194.97 56.867C195.595 57.1494 196.14 57.5828 196.553 58.1276C196.967 58.6725 197.238 59.3115 197.339 59.9866C196.729 53.668 196.14 47.7866 195.64 43.753Z" fill="#455A64"/>
<path d="M188.681 55.4763C190.876 55.3383 193.066 55.8059 195.01 56.8274C195.635 57.1098 196.18 57.5431 196.594 58.088C197.008 58.6328 197.278 59.2719 197.38 59.9469C196.77 53.6681 196.18 47.7867 195.68 43.7531C195.554 43.262 195.32 42.8052 194.992 42.4166C194.665 42.0279 194.254 41.7173 193.79 41.5079C192.391 40.7702 190.825 40.4008 189.241 40.4349L189.101 40.5342L188.681 55.5259V55.4763Z" fill="#37474F"/>
<path d="M235.354 63.1359L239.703 35.8747C239.772 35.598 239.812 35.3151 239.823 35.0303C238.003 39.6897 229.005 37.3053 229.005 37.3053L224.795 64.5467C230.004 65.3514 234.914 65.1627 235.354 63.1359Z" fill="#F28F8F"/>
<path d="M344.4 198C344 198 342 198 342 198.4C342.4 198.6 343.44 199 344.4 199C345.6 199 346 198.4 346 198.2C346 198 344.8 198 344.4 198Z" fill="#AC4B4D"/>
</g>
<defs>
<clipPath id="clip0_196_53">
<rect width="450" height="423.701" fill="white"/>
</clipPath>
</defs>
</svg>
