<svg width="1288" height="1806" viewBox="0 0 1288 1806" fill="none" xmlns="http://www.w3.org/2000/svg">
<path fill-rule="evenodd" clip-rule="evenodd" d="M708.292 1803.61C708.292 1803.61 709.578 1776.96 732.817 1770.01L745.217 1776.68C745.217 1776.68 728.729 1780.86 716.513 1805.01L708.292 1803.61Z" fill="url(#paint0_linear_507_473)"/>
<path fill-rule="evenodd" clip-rule="evenodd" d="M2.71795 1126.19C4.53844 1132.58 9.00531 1138.11 15.2118 1141.66C21.4183 1145.21 28.8993 1146.52 36.1363 1145.31L37.1976 1139.4C37.1976 1139.4 13.775 1127.75 8.47248 1115.84L2.71795 1126.19Z" fill="url(#paint1_linear_507_473)"/>
<path fill-rule="evenodd" clip-rule="evenodd" d="M848.142 828.229C849.57 834.695 853.693 840.435 859.674 844.284C865.655 848.132 873.045 849.8 880.345 848.949L881.765 843.1C881.765 843.1 859.088 830.322 854.52 818.176L848.142 828.229Z" fill="url(#paint2_linear_507_473)"/>
<path fill-rule="evenodd" clip-rule="evenodd" d="M223.789 274.723C227.147 280.688 232.825 285.254 239.677 287.5C246.529 289.745 254.047 289.504 260.714 286.824L260.278 280.693C260.278 280.693 234.818 273.795 226.841 263.025L223.789 274.723Z" fill="url(#paint3_linear_507_473)"/>
<path d="M1212.12 1692.06C1212.12 1692.06 1247.83 1688.83 1261.18 1662.71C1251.92 1665.06 1242.36 1666.27 1232.74 1666.33C1232.74 1666.33 1237.47 1676.6 1212.12 1692.06Z" fill="#FF002C"/>
<path fill-rule="evenodd" clip-rule="evenodd" d="M382.681 1711.07C382.681 1711.07 408.145 1731.81 440.351 1730.12C440.351 1730.12 426.026 1739.83 410.697 1740.95C410.697 1740.95 395.555 1732.32 382.681 1711.07Z" fill="url(#paint4_linear_507_473)"/>
<path fill-rule="evenodd" clip-rule="evenodd" d="M1286.85 325.444C1286.85 325.444 1276.55 345.976 1254.7 344.595L1246.61 335.712C1246.61 335.712 1261.86 337.294 1280.49 321.84L1286.85 325.444Z" fill="url(#paint5_linear_507_473)"/>
<path fill-rule="evenodd" clip-rule="evenodd" d="M968.002 17.333C968.002 17.333 993.465 38.0732 1025.67 36.3837C1025.67 36.3837 1011.35 46.0939 996.018 47.212C996.018 47.212 980.876 38.584 968.002 17.333Z" fill="url(#paint6_linear_507_473)"/>
<defs>
<linearGradient id="paint0_linear_507_473" x1="22980.8" y1="8541.71" x2="22980.8" y2="7977.87" gradientUnits="userSpaceOnUse">
<stop stop-color="#70455C"/>
<stop offset="0.98" stop-color="#7C2C34"/>
</linearGradient>
<linearGradient id="paint1_linear_507_473" x1="24911.2" y1="-3973.99" x2="24765.5" y2="-4244.84" gradientUnits="userSpaceOnUse">
<stop stop-color="#70455C"/>
<stop offset="0.98" stop-color="#7C2C34"/>
</linearGradient>
<linearGradient id="paint2_linear_507_473" x1="26030.7" y1="-3050.79" x2="25899.7" y2="-3327.37" gradientUnits="userSpaceOnUse">
<stop stop-color="#70455C"/>
<stop offset="0.98" stop-color="#7C2C34"/>
</linearGradient>
<linearGradient id="paint3_linear_507_473" x1="255.628" y1="291.334" x2="228.836" y2="261.277" gradientUnits="userSpaceOnUse">
<stop stop-color="#A38796"/>
<stop offset="0.98" stop-color="#B98E92"/>
</linearGradient>
<linearGradient id="paint4_linear_507_473" x1="3895.1" y1="20487.3" x2="4326.01" y2="21364.9" gradientUnits="userSpaceOnUse">
<stop offset="0.02" stop-color="#FF8B34"/>
<stop offset="1" stop-color="#FF455C"/>
</linearGradient>
<linearGradient id="paint5_linear_507_473" x1="443.802" y1="-9845.22" x2="312.603" y2="-9472.56" gradientUnits="userSpaceOnUse">
<stop stop-color="#70455C"/>
<stop offset="0.98" stop-color="#7C2C34"/>
</linearGradient>
<linearGradient id="paint6_linear_507_473" x1="4480.42" y1="18793.5" x2="4911.33" y2="19671.2" gradientUnits="userSpaceOnUse">
<stop offset="0.02" stop-color="#FF8B34"/>
<stop offset="1" stop-color="#FF455C"/>
</linearGradient>
</defs>
</svg>
