<svg width="350" height="463" viewBox="0 0 350 463" fill="none" xmlns="http://www.w3.org/2000/svg">
<g clip-path="url(#clip0_196_761)">
<path d="M317.584 0H136.298C118.393 0 103.878 14.5041 103.878 32.3958V430.572C103.878 448.464 118.393 462.968 136.298 462.968H317.584C335.489 462.968 350.004 448.464 350.004 430.572V32.3958C350.004 14.5041 335.489 0 317.584 0Z" fill="#993415"/>
<path d="M337.804 35.4602V424.406C337.804 437.6 327.077 448.394 313.957 448.394H139.905C126.801 448.394 116.057 437.6 116.057 424.406V35.4602C116.057 22.2661 126.78 11.4717 139.905 11.4717H313.974C327.077 11.4717 337.804 22.2828 337.804 35.4602Z" fill="#FABB68"/>
<path d="M313.974 11.4717L142.059 448.394H139.904C126.801 448.394 116.057 437.6 116.057 424.406V35.4602C116.057 22.2661 126.78 11.4717 139.904 11.4717H313.974Z" fill="#FBB040"/>
<path d="M263.321 2.71323H190.566C184.616 2.71323 179.792 7.53295 179.792 13.4784V15.1757C179.792 21.1211 184.616 25.9409 190.566 25.9409H263.321C269.271 25.9409 274.094 21.1211 274.094 15.1757V13.4784C274.094 7.53295 269.271 2.71323 263.321 2.71323Z" fill="#993415"/>
<path d="M263.053 109.474H15.5552C6.96429 109.474 0 116.433 0 125.018V224.07C0 232.654 6.96429 239.613 15.5552 239.613H263.053C271.644 239.613 278.608 232.654 278.608 224.07V125.018C278.608 116.433 271.644 109.474 263.053 109.474Z" fill="#ED1C24"/>
<path d="M264.785 48.625H167.911C160.725 48.625 154.899 54.4461 154.899 61.6268V79.9882C154.899 87.1689 160.725 92.99 167.911 92.99H264.785C271.971 92.99 277.797 87.1689 277.797 79.9882V61.6268C277.797 54.4461 271.971 48.625 264.785 48.625Z" fill="#ED674E"/>
<path d="M260.535 363.54H148.854C140.246 363.54 133.269 370.512 133.269 379.113V402.7C133.269 411.301 140.246 418.273 148.854 418.273H260.535C269.142 418.273 276.119 411.301 276.119 402.7V379.113C276.119 370.512 269.142 363.54 260.535 363.54Z" fill="#ED674E"/>
<path d="M198.435 262.293H303.945C308.894 262.294 313.641 264.259 317.141 267.755C320.642 271.251 322.61 275.993 322.613 280.939V322.202C322.613 327.15 320.646 331.895 317.146 335.394C313.645 338.893 308.897 340.859 303.945 340.86H198.435C193.484 340.86 188.736 338.895 185.235 335.396C181.734 331.898 179.767 327.153 179.767 322.206V280.939C179.77 275.993 181.737 271.251 185.238 267.754C188.739 264.258 193.486 262.293 198.435 262.293Z" fill="#F18648"/>
<path d="M107.075 169.629C107.094 178.532 104.15 187.189 98.7071 194.237C96.9634 196.496 94.9861 198.566 92.808 200.412C85.7903 206.351 76.9536 209.717 67.7603 209.955C58.5669 210.192 49.5681 207.285 42.253 201.716C34.9378 196.147 29.7449 188.249 27.5336 179.329C25.3223 170.409 26.225 161.002 30.0926 152.664C33.9601 144.327 40.5606 137.559 48.8016 133.481C57.0426 129.402 66.4303 128.258 75.4109 130.236C84.3916 132.215 92.4269 137.199 98.1871 144.362C103.947 151.526 107.087 160.44 107.087 169.629H107.075Z" fill="white"/>
<path d="M82.9261 188.697L82.6123 188.359C82.1479 188.003 81.6835 187.782 79.8175 187.46C78.8678 187.301 77.5499 187.113 75.6798 186.87C75.6798 186.87 75.2614 186.824 75.0648 186.808L74.5962 186.766C74.0607 186.486 73.9226 184.258 73.9268 181.925C73.9268 181.749 73.9268 181.574 73.9268 181.398C73.9268 180.512 73.9645 179.638 73.998 178.852C73.998 178.802 73.998 178.756 73.998 178.706C75.1527 178.802 75.9183 178.793 75.9183 178.793C78.0687 178.622 79.4117 172.861 79.8928 168.204C80.553 166.506 80.9126 164.707 80.9555 162.886C81.0268 161.289 80.5385 159.718 79.5749 158.442C79.1531 157.907 78.6422 157.449 78.0646 157.088C77.9307 156.954 77.7926 156.833 77.6462 156.715C75.6463 154.496 67.5131 146.176 62.1663 150.988C62.0282 150.507 60.292 145.106 51.8743 146.874C52.3972 146.82 56.1291 146.456 57.2086 147.978C57.0621 147.915 53.803 146.469 51.7697 147.731C50.82 148.308 50.23 149.508 49.8953 150.771V150.796C49.8953 150.796 49.8953 150.796 49.8953 150.817C49.8934 150.829 49.8934 150.842 49.8953 150.854C49.8577 151.026 49.8159 151.197 49.7782 151.368C49.7782 151.394 49.7782 151.419 49.7782 151.448C49.7782 151.477 49.7782 151.448 49.7782 151.448C49.5499 152.495 49.5159 153.574 49.6778 154.634C49.9916 155.95 52.3136 159.872 53.8615 159.872C54.4692 159.85 55.0664 159.708 55.6187 159.454C55.3634 160.201 55.1538 160.964 54.9912 161.736C53.3135 169.441 58.4302 175.294 61.0743 173.839C62.7729 172.915 64.0574 175.884 64.0574 175.884C63.8063 181.507 62.2625 185.177 61.1287 186.093C60.7104 186.139 59.8318 186.248 58.7231 186.423C58.7231 186.423 54.8196 186.841 51.8492 188.141L51.778 188.171C51.1804 188.406 50.6175 188.721 50.1045 189.107C49.8942 189.265 49.7106 189.455 49.5606 189.671C49.4928 189.75 49.4338 189.835 49.3849 189.926C48.3934 191.816 47.3935 194.655 46.4563 197.983C52.6552 202.583 60.2284 204.955 67.9463 204.713C75.6642 204.471 83.0736 201.629 88.9716 196.649C86.7919 192.084 84.29 189.73 82.9261 188.697Z" fill="#993415"/>
<path d="M180.579 142.154H134.721C133.124 142.154 131.83 143.448 131.83 145.043V146.423C131.83 148.018 133.124 149.312 134.721 149.312H180.579C182.176 149.312 183.47 148.018 183.47 146.423V145.043C183.47 143.448 182.176 142.154 180.579 142.154Z" fill="white"/>
<path d="M181.131 175.031H134.156C133.538 175.028 132.946 174.781 132.509 174.344C132.072 173.907 131.825 173.316 131.822 172.698C131.824 172.08 132.07 171.488 132.508 171.051C132.945 170.614 133.538 170.367 134.156 170.365H181.127C181.746 170.367 182.338 170.614 182.775 171.051C183.213 171.488 183.459 172.08 183.462 172.698C183.459 173.315 183.213 173.907 182.777 174.344C182.34 174.781 181.749 175.028 181.131 175.031Z" fill="white"/>
<path d="M160.342 181.406H133.617C132.63 181.406 131.83 182.206 131.83 183.191V184.287C131.83 185.273 132.63 186.072 133.617 186.072H160.342C161.329 186.072 162.129 185.273 162.129 184.287V183.191C162.129 182.206 161.329 181.406 160.342 181.406Z" fill="white"/>
<path d="M214.806 181.406H171.622C170.383 181.406 169.379 182.41 169.379 183.647V183.831C169.379 185.069 170.383 186.072 171.622 186.072H214.806C216.045 186.072 217.049 185.069 217.049 183.831V183.647C217.049 182.41 216.045 181.406 214.806 181.406Z" fill="white"/>
<path d="M255.15 175.031H193.565C192.947 175.029 192.354 174.782 191.917 174.345C191.48 173.908 191.233 173.316 191.231 172.698C191.233 172.08 191.48 171.488 191.917 171.051C192.354 170.614 192.947 170.367 193.565 170.365H255.15C255.769 170.367 256.361 170.614 256.799 171.051C257.236 171.488 257.483 172.08 257.485 172.698C257.482 173.316 257.235 173.907 256.797 174.344C256.36 174.781 255.768 175.028 255.15 175.031Z" fill="white"/>
<path d="M181.131 197.109H134.156C133.538 197.107 132.945 196.86 132.508 196.423C132.07 195.986 131.824 195.394 131.822 194.776C131.822 194.157 132.067 193.562 132.505 193.124C132.942 192.685 133.536 192.437 134.156 192.435H181.127C181.746 192.437 182.338 192.684 182.775 193.121C183.213 193.558 183.459 194.15 183.462 194.768C183.462 195.386 183.216 195.98 182.78 196.419C182.343 196.857 181.75 197.105 181.131 197.109Z" fill="white"/>
<path d="M401.914 195.036H340.329C339.711 195.034 339.118 194.787 338.681 194.35C338.243 193.913 337.997 193.321 337.995 192.703C337.995 192.084 338.24 191.49 338.678 191.051C339.115 190.612 339.709 190.364 340.329 190.362H401.914C402.532 190.364 403.125 190.611 403.562 191.048C404 191.485 404.246 192.077 404.249 192.695C404.249 193.314 404.003 193.909 403.565 194.347C403.128 194.786 402.534 195.034 401.914 195.036Z" fill="white"/>
<path d="M225.274 142.154H192.34C190.972 142.154 189.863 143.262 189.863 144.629V146.837C189.863 148.203 190.972 149.312 192.34 149.312H225.274C226.642 149.312 227.751 148.203 227.751 146.837V144.629C227.751 143.262 226.642 142.154 225.274 142.154Z" fill="white"/>
<path d="M183.75 374.004H151.146C150.012 374.004 149.092 374.923 149.092 376.057V377.039C149.092 378.173 150.012 379.092 151.146 379.092H183.75C184.885 379.092 185.804 378.173 185.804 377.039V376.057C185.804 374.923 184.885 374.004 183.75 374.004Z" fill="#ED1C24"/>
<path d="M184.144 392.111H150.749C150.305 392.111 149.879 391.934 149.566 391.621C149.252 391.307 149.075 390.882 149.075 390.438C149.075 389.995 149.252 389.569 149.566 389.256C149.879 388.942 150.305 388.766 150.749 388.766H184.144C184.587 388.766 185.013 388.942 185.327 389.256C185.641 389.569 185.817 389.995 185.817 390.438C185.817 390.882 185.641 391.307 185.327 391.621C185.013 391.934 184.587 392.111 184.144 392.111Z" fill="#ED1C24"/>
<path d="M169.362 396.647H150.364C149.661 396.647 149.092 397.216 149.092 397.918V398.691C149.092 399.393 149.661 399.962 150.364 399.962H169.362C170.065 399.962 170.634 399.393 170.634 398.691V397.918C170.634 397.216 170.065 396.647 169.362 396.647Z" fill="#ED1C24"/>
<path d="M208.083 396.647H177.383C176.502 396.647 175.789 397.36 175.789 398.239V398.369C175.789 399.249 176.502 399.962 177.383 399.962H208.083C208.963 399.962 209.677 399.249 209.677 398.369V398.239C209.677 397.36 208.963 396.647 208.083 396.647Z" fill="#ED1C24"/>
<path d="M236.767 392.111H192.98C192.536 392.111 192.11 391.934 191.796 391.621C191.482 391.307 191.306 390.882 191.306 390.438C191.306 389.995 191.482 389.569 191.796 389.256C192.11 388.942 192.536 388.766 192.98 388.766H236.767C237.211 388.766 237.636 388.942 237.95 389.256C238.264 389.569 238.44 389.995 238.44 390.438C238.44 390.882 238.264 391.307 237.95 391.621C237.636 391.934 237.211 392.111 236.767 392.111Z" fill="#ED1C24"/>
<path d="M184.144 407.809H150.749C150.305 407.809 149.879 407.633 149.566 407.319C149.252 407.005 149.075 406.58 149.075 406.137C149.075 405.693 149.252 405.268 149.566 404.954C149.879 404.641 150.305 404.464 150.749 404.464H184.144C184.587 404.464 185.013 404.641 185.327 404.954C185.641 405.268 185.817 405.693 185.817 406.137C185.817 406.58 185.641 407.005 185.327 407.319C185.013 407.633 184.587 407.809 184.144 407.809Z" fill="#ED1C24"/>
<path d="M236.767 407.809H192.98C192.536 407.809 192.11 407.633 191.796 407.319C191.482 407.005 191.306 406.58 191.306 406.137C191.306 405.693 191.482 405.268 191.796 404.954C192.11 404.641 192.536 404.464 192.98 404.464H236.767C237.211 404.464 237.636 404.641 237.95 404.954C238.264 405.268 238.44 405.693 238.44 406.137C238.44 406.58 238.264 407.005 237.95 407.319C237.636 407.633 237.211 407.809 236.767 407.809Z" fill="#ED1C24"/>
<path d="M215.526 374.004H192.114C191.141 374.004 190.352 374.792 190.352 375.764V377.332C190.352 378.304 191.141 379.092 192.114 379.092H215.526C216.499 379.092 217.287 378.304 217.287 377.332V375.764C217.287 374.792 216.499 374.004 215.526 374.004Z" fill="#ED1C24"/>
<path d="M205.38 57.1828H172.776C171.642 57.1828 170.722 58.1018 170.722 59.2355V60.2179C170.722 61.3516 171.642 62.2706 172.776 62.2706H205.38C206.515 62.2706 207.435 61.3516 207.435 60.2179V59.2355C207.435 58.1018 206.515 57.1828 205.38 57.1828Z" fill="#ED1C24"/>
<path d="M205.774 75.2933H172.379C171.935 75.2933 171.509 75.1171 171.195 74.8035C170.882 74.4899 170.705 74.0646 170.705 73.621C170.705 73.1775 170.882 72.7522 171.195 72.4386C171.509 72.125 171.935 71.9488 172.379 71.9488H205.774C206.217 71.9488 206.643 72.125 206.957 72.4386C207.271 72.7522 207.447 73.1775 207.447 73.621C207.447 74.0646 207.271 74.4899 206.957 74.8035C206.643 75.1171 206.217 75.2933 205.774 75.2933Z" fill="#ED1C24"/>
<path d="M190.988 79.8251H171.99C171.287 79.8251 170.718 80.3941 170.718 81.096V81.8695C170.718 82.5714 171.287 83.1404 171.99 83.1404H190.988C191.691 83.1404 192.26 82.5714 192.26 81.8695V81.096C192.26 80.3941 191.691 79.8251 190.988 79.8251Z" fill="#ED1C24"/>
<path d="M229.713 79.8251H199.013C198.132 79.8251 197.419 80.5383 197.419 81.418V81.5476C197.419 82.4272 198.132 83.1404 199.013 83.1404H229.713C230.593 83.1404 231.307 82.4272 231.307 81.5476V81.418C231.307 80.5383 230.593 79.8251 229.713 79.8251Z" fill="#ED1C24"/>
<path d="M258.414 75.2933H214.61C214.166 75.2933 213.74 75.1171 213.426 74.8035C213.113 74.4899 212.936 74.0646 212.936 73.621C212.936 73.1775 213.113 72.7522 213.426 72.4386C213.74 72.125 214.166 71.9488 214.61 71.9488H258.414C258.858 71.9488 259.283 72.125 259.597 72.4386C259.911 72.7522 260.087 73.1775 260.087 73.621C260.087 74.0646 259.911 74.4899 259.597 74.8035C259.283 75.1171 258.858 75.2933 258.414 75.2933Z" fill="#ED1C24"/>
<path d="M237.156 57.1828H213.744C212.771 57.1828 211.982 57.9708 211.982 58.9429V60.5106C211.982 61.4826 212.771 62.2706 213.744 62.2706H237.156C238.129 62.2706 238.917 61.4826 238.917 60.5106V58.9429C238.917 57.9708 238.129 57.1828 237.156 57.1828Z" fill="#ED1C24"/>
<path d="M234.194 276.691H198.502C197.259 276.691 196.251 277.698 196.251 278.941V280.011C196.251 281.253 197.259 282.26 198.502 282.26H234.194C235.437 282.26 236.445 281.253 236.445 280.011V278.941C236.445 277.698 235.437 276.691 234.194 276.691Z" fill="#EA652A"/>
<path d="M234.629 296.533H198.067C197.586 296.531 197.124 296.338 196.784 295.997C196.444 295.657 196.253 295.195 196.251 294.714C196.254 294.234 196.446 293.773 196.786 293.434C197.126 293.094 197.586 292.902 198.067 292.9H234.629C235.11 292.902 235.57 293.094 235.911 293.434C236.251 293.773 236.443 294.234 236.445 294.714C236.444 295.195 236.252 295.657 235.912 295.997C235.572 296.338 235.111 296.531 234.629 296.533Z" fill="#EA652A"/>
<path d="M218.442 301.483H197.645C196.875 301.483 196.251 302.106 196.251 302.875V303.723C196.251 304.492 196.875 305.116 197.645 305.116H218.442C219.212 305.116 219.835 304.492 219.835 303.723V302.875C219.835 302.106 219.212 301.483 218.442 301.483Z" fill="#EA652A"/>
<path d="M260.836 301.483H227.224C226.26 301.483 225.479 302.263 225.479 303.226V303.368C225.479 304.331 226.26 305.111 227.224 305.111H260.836C261.799 305.111 262.581 304.331 262.581 303.368V303.226C262.581 302.263 261.799 301.483 260.836 301.483Z" fill="#EA652A"/>
<path d="M292.239 296.533H244.302C243.82 296.531 243.359 296.338 243.019 295.997C242.679 295.657 242.487 295.195 242.486 294.714C242.488 294.234 242.68 293.773 243.02 293.434C243.36 293.094 243.821 292.902 244.302 292.9H292.239C292.72 292.902 293.181 293.094 293.521 293.434C293.861 293.773 294.053 294.234 294.055 294.714C294.054 295.195 293.862 295.657 293.522 295.997C293.182 296.338 292.721 296.531 292.239 296.533Z" fill="#EA652A"/>
<path d="M234.629 313.703H198.067C197.586 313.702 197.125 313.51 196.784 313.17C196.444 312.83 196.253 312.369 196.251 311.888C196.253 311.407 196.444 310.947 196.784 310.606C197.125 310.266 197.586 310.075 198.067 310.074H234.629C235.11 310.075 235.571 310.266 235.912 310.606C236.252 310.947 236.444 311.407 236.445 311.888C236.444 312.369 236.252 312.83 235.912 313.17C235.571 313.51 235.11 313.702 234.629 313.703Z" fill="#EA652A"/>
<path d="M292.239 313.703H244.302C243.821 313.702 243.359 313.51 243.019 313.17C242.679 312.83 242.487 312.369 242.486 311.888C242.487 311.407 242.679 310.947 243.019 310.606C243.359 310.266 243.821 310.075 244.302 310.074H292.239C292.72 310.075 293.182 310.266 293.522 310.606C293.862 310.947 294.054 311.407 294.055 311.888C294.054 312.369 293.862 312.83 293.522 313.17C293.182 313.51 292.72 313.702 292.239 313.703Z" fill="#EA652A"/>
<path d="M234.629 322.649H198.067C197.586 322.648 197.125 322.457 196.784 322.117C196.444 321.777 196.253 321.316 196.251 320.835C196.253 320.354 196.444 319.893 196.784 319.553C197.125 319.213 197.586 319.022 198.067 319.02H234.629C235.11 319.022 235.571 319.213 235.912 319.553C236.252 319.893 236.444 320.354 236.445 320.835C236.444 321.316 236.252 321.777 235.912 322.117C235.571 322.457 235.11 322.648 234.629 322.649Z" fill="#EA652A"/>
<path d="M292.239 322.649H244.302C243.821 322.648 243.359 322.457 243.019 322.117C242.679 321.777 242.487 321.316 242.486 320.835C242.487 320.354 242.679 319.893 243.019 319.553C243.359 319.213 243.821 319.022 244.302 319.02H292.239C292.72 319.022 293.182 319.213 293.522 319.553C293.862 319.893 294.054 320.354 294.055 320.835C294.054 321.316 293.862 321.777 293.522 322.117C293.182 322.457 292.72 322.648 292.239 322.649Z" fill="#EA652A"/>
<path d="M268.986 276.691H243.352C242.287 276.691 241.423 277.554 241.423 278.619V280.333C241.423 281.397 242.287 282.26 243.352 282.26H268.986C270.051 282.26 270.915 281.397 270.915 280.333V278.619C270.915 277.554 270.051 276.691 268.986 276.691Z" fill="#EA652A"/>
<path d="M149.636 35.803L147.155 37.584L144.645 35.8239C144.926 35.4266 145.297 35.1022 145.729 34.8776C146.161 34.653 146.64 34.5347 147.127 34.5327C147.613 34.5306 148.093 34.6448 148.527 34.8658C148.961 35.0868 149.335 35.4081 149.619 35.803H149.636Z" fill="white"/>
<path d="M147.163 21.9567C144.659 21.9562 142.191 22.5585 139.968 23.7126C137.745 24.8667 135.834 26.5387 134.395 28.5872L135.972 29.6909C137.23 27.9037 138.898 26.4436 140.836 25.4331C142.775 24.4225 144.928 23.8909 147.115 23.8827C149.301 23.8745 151.458 24.39 153.404 25.386C155.35 26.382 157.029 27.8295 158.3 29.6073L159.861 28.4827C158.418 26.4628 156.513 24.8167 154.304 23.6816C152.095 22.5464 149.647 21.955 147.163 21.9567Z" fill="white"/>
<path d="M147.163 26.4634C145.381 26.463 143.624 26.8894 142.04 27.707C140.456 28.5245 139.091 29.7095 138.06 31.1625L139.633 32.2662C140.485 31.0724 141.61 30.0984 142.913 29.4245C144.217 28.7506 145.662 28.3962 147.13 28.3904C148.597 28.3847 150.045 28.7279 151.354 29.3916C152.663 30.0553 153.795 31.0206 154.656 32.2076L156.217 31.0914C155.183 29.6579 153.823 28.4906 152.249 27.6859C150.675 26.8812 148.932 26.4622 147.163 26.4634Z" fill="white"/>
<path d="M133.236 298.364C133.234 301.262 134.029 304.106 135.532 306.584C137.036 309.063 139.191 311.082 141.764 312.421C144.336 313.76 147.227 314.368 150.122 314.179C153.016 313.99 155.803 313.011 158.179 311.349C158.309 311.261 158.435 311.165 158.564 311.073C160.734 309.458 162.453 307.316 163.56 304.85C164.667 302.384 165.124 299.675 164.888 296.983C164.652 294.29 163.73 291.703 162.211 289.466C160.692 287.23 158.625 285.419 156.208 284.206C153.79 282.993 151.103 282.419 148.4 282.537C145.698 282.654 143.071 283.461 140.769 284.88C138.466 286.299 136.566 288.283 135.247 290.643C133.929 293.003 133.236 295.661 133.236 298.364Z" fill="white"/>
<path d="M153.401 308.527L151.941 307.235L151.577 307.302C151.307 307.111 151.028 306.934 150.74 306.771C150.837 306.182 150.916 305.634 150.983 305.149C151.119 304.194 151.201 303.233 151.23 302.269C152.004 302.231 152.527 302.147 152.527 302.147C153.991 301.809 154.062 296.813 153.724 294.204C154.004 294.214 154.282 294.161 154.539 294.049C155.648 293.56 155.711 291.884 155.711 291.884C155.528 292.219 155.252 292.494 154.916 292.674C154.916 292.674 156.769 290.136 154.619 288.401C152.468 286.666 150.289 287.799 149.042 287.875C146.306 288.042 144.536 288.205 143.645 290.003C142.754 291.8 143.109 296.65 144.8 298.443C144.829 298.611 144.858 298.774 144.879 298.941C144.959 299.521 145.19 300.07 145.548 300.534C145.247 302.238 144.554 303.85 143.524 305.241C142.964 305.69 142.473 306.218 142.068 306.809H142.038C141.127 308.188 140.436 309.702 139.992 311.295C139.992 311.295 139.992 311.295 139.992 311.32C140.895 311.954 141.864 312.486 142.883 312.908L143.084 312.992H143.13L143.461 313.122C143.729 313.226 143.996 313.322 144.268 313.41C144.54 313.498 144.841 313.586 145.13 313.661L145.548 313.757C145.666 313.786 145.783 313.811 145.904 313.832H145.954L146.193 313.878L146.753 313.974H146.883L147.193 314.016L147.632 314.066C147.795 314.066 147.962 314.096 148.13 314.104C148.297 314.112 148.444 314.104 148.603 314.129H149.1H149.636H149.812H150.075H150.054C150.222 314.129 150.385 314.108 150.552 314.091C152.644 313.894 154.676 313.28 156.527 312.285C155.676 310.886 154.623 309.619 153.401 308.527Z" fill="#ED674E"/>
<path d="M288.905 390.455C288.905 393.611 289.841 396.696 291.596 399.32C293.351 401.944 295.846 403.989 298.764 405.196C301.682 406.403 304.893 406.718 307.991 406.101C311.088 405.484 313.933 403.963 316.165 401.73C318.397 399.497 319.916 396.653 320.53 393.557C321.144 390.461 320.826 387.253 319.615 384.338C318.404 381.424 316.355 378.933 313.727 377.182C311.1 375.431 308.011 374.498 304.853 374.502C302.755 374.492 300.675 374.899 298.735 375.697C296.794 376.496 295.032 377.671 293.549 379.154C292.066 380.638 290.892 382.4 290.095 384.34C289.297 386.28 288.893 388.358 288.905 390.455Z" fill="white"/>
<path d="M313.028 399.494C313.007 399.45 312.98 399.409 312.949 399.372C312.877 399.273 312.791 399.184 312.693 399.109C312.452 398.934 312.187 398.793 311.907 398.691H311.873C310.844 398.287 309.767 398.017 308.669 397.888C308.15 397.809 307.74 397.759 307.547 397.738C307.012 397.32 306.292 395.597 306.175 392.976C306.175 392.976 306.773 391.588 307.564 392.023C308.819 392.696 311.183 389.97 310.422 386.387C310.344 386.028 310.246 385.674 310.129 385.325C310.392 385.446 310.676 385.515 310.966 385.526C311.681 385.526 312.765 383.695 312.911 383.08C313.057 382.466 312.911 380.447 311.915 379.849C310.919 379.251 309.438 379.937 309.372 379.962C309.861 379.276 311.534 379.414 311.84 379.447C307.932 378.636 307.125 381.12 307.058 381.366C304.573 379.121 300.782 383.001 299.845 384.038C299.781 384.091 299.718 384.149 299.657 384.213C299.387 384.379 299.15 384.592 298.954 384.84C298.5 385.44 298.272 386.18 298.31 386.931C298.33 387.779 298.497 388.618 298.803 389.41C299.029 391.58 299.64 394.268 300.661 394.347C300.661 394.347 301.017 394.347 301.552 394.305C301.552 394.331 301.552 394.351 301.552 394.377C301.552 394.74 301.581 395.15 301.585 395.56V395.806C301.585 396.897 301.523 397.934 301.276 398.064H301.058C300.958 398.064 300.77 398.093 300.77 398.093C299.899 398.206 299.28 398.294 298.841 398.369C297.971 398.515 297.753 398.62 297.54 398.787C297.487 398.837 297.436 398.89 297.389 398.946C296.168 399.94 295.2 401.209 294.565 402.65C297.317 404.979 300.778 406.309 304.382 406.422C307.987 406.535 311.524 405.425 314.417 403.273C314.074 401.972 313.609 400.707 313.028 399.494Z" fill="#F99746"/>
<path d="M288.905 69.8543C288.899 73.3758 290.065 76.7993 292.218 79.5869C292.909 80.4801 293.691 81.2985 294.553 82.0283C297.328 84.3758 300.822 85.7063 304.456 85.7995C308.091 85.8927 311.649 84.743 314.54 82.5409C317.432 80.3387 319.485 77.2159 320.359 73.6893C321.233 70.1626 320.876 66.4435 319.346 63.1474C317.817 59.8512 315.208 57.1756 311.949 55.5632C308.691 53.9507 304.98 53.4982 301.429 54.2805C297.879 55.0628 294.702 57.0329 292.424 59.865C290.147 62.697 288.905 66.2212 288.905 69.8543Z" fill="white"/>
<path d="M313.028 78.8929C313.006 78.8497 312.979 78.809 312.949 78.7716C312.877 78.6718 312.791 78.5831 312.693 78.5082C312.451 78.3288 312.187 78.1812 311.907 78.0693H311.873C310.844 77.6673 309.767 77.3976 308.669 77.2666C308.15 77.183 307.74 77.1328 307.547 77.1119C307.376 76.9655 307.234 76.7882 307.129 76.5893C306.686 75.8117 306.251 74.3485 306.163 72.3543C306.163 72.3543 306.761 70.9705 307.552 71.4011C308.807 72.0742 311.171 69.3526 310.409 65.7698C310.332 65.4092 310.234 65.0533 310.116 64.7038C310.379 64.8248 310.664 64.893 310.953 64.9044C311.668 64.9044 312.752 63.0733 312.898 62.4629C313.045 61.8526 312.898 59.8249 311.903 59.2271C310.907 58.6293 309.426 59.3149 309.359 59.3442C309.849 58.6585 311.526 58.7965 311.827 58.8258C307.92 58.0147 307.112 60.5231 307.045 60.7447C304.56 58.5039 300.77 62.3835 299.833 63.4161C299.768 63.4691 299.706 63.5276 299.644 63.5917C299.375 63.7596 299.137 63.9732 298.941 64.223C298.491 64.8163 298.263 65.5485 298.297 66.2924C298.317 67.1411 298.484 67.98 298.791 68.7715C299.017 70.9455 299.628 73.6294 300.648 73.7089C300.648 73.7089 301.004 73.7089 301.54 73.6712C301.54 73.6921 301.54 73.713 301.54 73.7381C301.54 74.1018 301.569 74.5115 301.573 74.9254V75.1721C301.573 76.2632 301.51 77.2958 301.263 77.4296H301.046L300.757 77.4589C299.887 77.5718 299.268 77.6596 298.829 77.7348C297.958 77.8853 297.741 77.9857 297.527 78.1529L297.377 78.3117C296.155 79.3075 295.188 80.5783 294.553 82.02C294.703 82.1482 294.858 82.2736 295.017 82.3962L295.097 82.4589C295.214 82.5509 295.331 82.6387 295.452 82.7223C295.574 82.8059 295.62 82.8519 295.707 82.9104C295.795 82.969 295.883 83.0317 295.971 83.086C296.059 83.1404 296.226 83.2616 296.36 83.341L296.628 83.5083L296.963 83.7048L297.339 83.9138H297.373H297.394L297.448 83.9431L297.749 84.0977L297.841 84.1437L298.013 84.2274L298.18 84.3068L298.569 84.4782L298.962 84.637L299.142 84.7081L299.322 84.775L299.69 84.9046L300.075 85.03L300.402 85.1304H300.435L300.644 85.1889C301.025 85.2934 301.414 85.3854 301.807 85.4606C301.979 85.4941 302.15 85.5275 302.322 85.5526H302.456H302.502L302.837 85.5944H302.908H302.958C303.062 85.5944 303.167 85.6195 303.267 85.6279H303.322H303.418C303.606 85.6279 303.79 85.6571 303.979 85.6655H304.008H304.184H304.293H304.845C308.282 85.6712 311.628 84.5621 314.38 82.5049C314.039 81.2628 313.586 80.0538 313.028 78.8929Z" fill="#F99746"/>
</g>
<defs>
<clipPath id="clip0_196_761">
<rect width="350" height="462.968" fill="white"/>
</clipPath>
</defs>
</svg>
